<mxfile host="app.diagrams.net" agent="Mozilla/5.0 (Windows NT 10.0; Win64; x64) AppleWebKit/537.36 (KHTML, like Gecko) Chrome/137.0.0.0 Safari/537.36 Edg/137.0.0.0" version="27.1.4">
  <diagram name="Page-1" id="cMWBIjoDNXprRYbxluIc">
    <mxGraphModel dx="778" dy="468" grid="1" gridSize="10" guides="1" tooltips="1" connect="1" arrows="1" fold="1" page="1" pageScale="1" pageWidth="827" pageHeight="1169" math="0" shadow="0">
      <root>
        <mxCell id="0" />
        <mxCell id="1" parent="0" />
        <mxCell id="LWeS2vQ3Frpwj3SJLR0B-1" value="" style="swimlane;startSize=0;" vertex="1" parent="1">
          <mxGeometry x="314" y="140" width="156" height="50" as="geometry" />
        </mxCell>
        <mxCell id="LWeS2vQ3Frpwj3SJLR0B-20" style="edgeStyle=orthogonalEdgeStyle;rounded=0;orthogonalLoop=1;jettySize=auto;html=1;entryX=0.485;entryY=0.991;entryDx=0;entryDy=0;entryPerimeter=0;" edge="1" parent="1" target="LWeS2vQ3Frpwj3SJLR0B-16">
          <mxGeometry relative="1" as="geometry">
            <mxPoint x="390" y="140" as="sourcePoint" />
          </mxGeometry>
        </mxCell>
        <mxCell id="LWeS2vQ3Frpwj3SJLR0B-2" value="&lt;font style=&quot;font-size: 22px;&quot;&gt;Synology&lt;/font&gt;" style="text;html=1;align=center;verticalAlign=middle;resizable=0;points=[];autosize=1;strokeColor=none;fillColor=none;" vertex="1" parent="1">
          <mxGeometry x="335" y="143" width="110" height="40" as="geometry" />
        </mxCell>
        <mxCell id="LWeS2vQ3Frpwj3SJLR0B-3" value="" style="shape=image;verticalLabelPosition=bottom;labelBackgroundColor=default;verticalAlign=top;aspect=fixed;imageAspect=0;image=https://les-tilleuls.coop/wp-content/uploads/2021/08/docker.png;" vertex="1" parent="1">
          <mxGeometry x="350" y="220" width="80" height="80" as="geometry" />
        </mxCell>
        <mxCell id="LWeS2vQ3Frpwj3SJLR0B-5" value="VaultWarden&#xa;80:80" style="shape=image;verticalLabelPosition=bottom;labelBackgroundColor=none;verticalAlign=top;aspect=fixed;imageAspect=0;image=data:image/png,iVBORw0KGgoAAAANSUhEUgAAAOkAAADnCAMAAADM44GhAAAAAXNSR0IArs4c6QAAAARnQU1BAACxjwv8YQUAAAMAUExURQAAAAAAAAAAAAAAAAAAAAAAAAAAAAAAAAAAAAAAAAAAAAAAAAAAAAAAAAAAAAAAAAAAAAAAAAAAAAAAAAAAAAAAAAAAAAAAAAAAAAAAAAAAAAAAAAAAAAAAAAAAAAAAAAAAAAAAAAAAAAAAAAAAAAAAAAAAAAAAAAAAAAAAAAAAAAAAAAAAAAAAAAAAAAAAAAAAAAAAAAAAAAAAAAAAAAAAAAAAAAAAAAAAAAAAAAAAAAAAAAAAAAAAAAAAAAAAAAAAAAAAAAAAAAAAAAAAAAAAAAAAAAAAAAAAAAAAAAAAAAAAAAAAAAAAAAAAAAAAAAAAAAAAAAAAAAAAAAAAAAAAAAAAAAAAAAAAAAAAAAAAAAAAAAAAAAAAAAAAAAAAAAAAAAAAAAAAAAAAAAAAAAAAAAAAAAAAAAAAAAAAAAAAAAAAAAAAAAAAAAAAAAAAAAAAAAAAAAAAAAAAAAAAAAAAAAAAAAAAAAAAAAAAAAAAAAAAAAAAAAAAAAAAAAAAAAAAAAAAAAAAAAAAAAAAAAAAAAAAAAAAAAAAAAAAAAAAAAAAAAAAAAAAAAAAAAAAAAAAAAAAAAAAAAAAAAAAAAAAAAAAAAAAAAAAAAAAAAAAAAAAAAAAAAAAAAAAAAAAAAAAAAAAAAAAAAAAAAAAAAAAAAAAAAAAAAAAAAAAAAAAAAAAAAAAAAAAAAAAAAAAAAAAAAAAAAAAAAAAAAAAAAAAAAAAAAAAAAAAAAAAAAAAAAAAAAAAAAAAAAAAAAAAAAAAAAAAAAAAAAAAAAAAAAAAAAAAAAAAAAAAAAAAAAAAAAAAAAAAAAAAAAAAAAAAAAAAAAAAAAAAAAAAAAAAAAAAAAAAAAAAAAAAAAAAAAAAAAAAAAAAAAAAAAAAAAAAAAAAAAAAAAAAAAAAAAAAAAAAAAAAAAAAAAAAAAAAAAAAAAAAAAAAAAAAAAAAAAAAAAAAAAAAAAAAAAAAAAAAAAAAAAAAAAAAAAAAAAAAAAAAAAAAAAAAAAAAAAAAAAAAALMw9IgAAAD/dFJOUwABAgMEBQYHCAkKCwwNDg8QERITFBUWFxgZGhscHR4fICEiIyQlJicoKSorLC0uLzAxMjM0NTY3ODk6Ozw9Pj9AQUJDREVGR0hJSktMTU5PUFFSU1RVVldYWVpbXF1eX2BhYmNkZWZnaGlqa2xtbm9wcXJzdHV2d3h5ent8fX5/gIGCg4SFhoeIiYqLjI2Oj5CRkpOUlZaXmJmam5ydnp+goaKjpKWmp6ipqqusra6vsLGys7S1tre4ubq7vL2+v8DBwsPExcbHyMnKy8zNzs/Q0dLT1NXW19jZ2tvc3d7f4OHi4+Tl5ufo6err7O3u7/Dx8vP09fb3+Pn6+/z9/usI2TUAAAAJcEhZcwAAFxEAABcRAcom8z8AABqrSURBVHhe3Z13YBRF38c3BQhBIKEkoSXSW0Cq0lGkKNjQF0QEBLE3BMUCKiCKDURFsaCPihQFeR4VKaIUA1JDERIUkBY6IYQWShJy75bvtrudmd/uXSD4+WtnbnZ2727LzK98R7rk9N1asKAJtv/VPOKTOdYYpX8JLWakzmiObZ0ax5Rv6lsYjrLOPb+te6s8tq84WhyXv9LxziiBGeoX9fkGogxGKXW/l0bpSmOW+pUyW6GocvtFtdLn21cJNSpDtcpBKF5hXH1KO/0Myz0Zk67VyXyGKoXB+VrdbyhfYeB/8vm21UKNJL2GKpn8TqiTpF4XUHf2GtRcUUSuwOn7fBuroK7padQorI1C7c1m7WhUFWFK3D7s1mLY1rgOV6TCCu2pGv4LyhrPq5VS+yyUZdJKanUgbsBT12GzqBD7k3yaCxqipDJBO3eNhVcpVfejBLLqKpXNDqGocpNSpXPnDp/vwssoFBFGq6d5aACKMmXls7QwK1KSqu1HQed/cru6O1HQ+ELbW6HUW9pzugPKRYKwDeo5+XxTKqBG6okanTkjJ6/HpsnciSO3YBMcjsf+UnP9Pn8DFUWCikdwVr4NHVH1HSrcMhj7P6wMO1SUf77I0Oo8zkp+UYxUH0yJxom6ZKHaYcI3KMqkFlerigb34KRU5taUa55HwTVnW8t7d/sbJYWDieoxigYv4aQ09t4/ZP4ZbLtn39R+r5qXiEy+bTh5mfkSJ1U49MFRigCRy3FOhcMoHOZykFgbGxqxtpd/yJmJw2hEN4jFVuETO2X/kSX3qqMejca5OKfCITUMx5FJGpGetX2opaIwidAm05uGxKFC+j+1gsi2Kc88+8U/KJDYl4DjSMkTtGHW/SgXMvX0ofvO0TW0mmdRQSD76bLKHrHDMXmlcA5zufZf65OeVZfmT22Pw8lkTW4hV8QvQlHM4fZaH5LUKRNVBEaFy1fS7XMLUJR/Y3kUfQloicOpnJvZ7RH6pVjQG33IDNDtLAQWd+9rznZl0iPQSeGSjMN54Bd0oZKCSg+k+lsWC4faLv4MPx5GFypPoNIDK9BFIVP9LI7nmnzjLlW4AbUeuESWtcRsHM81F2xm7rao9cBcdFHIVD6M47mmoDu6ULkVtR6YjS4Kmbi9OJ57XkcXKjZDkzu+QReFTPntOJ57dpVDHzLx+1DpgSnoo5ApuxnHI5KxxnxYf4I+ZL5Glc+Xud5iByUxCX2EnOq1rNOHqDU4HoHMlDG3VpIGmKbr8SW0TqInocLn29NSqn/nywvczIfGaZ1oJNQxrGxBEj81J2/7tOEd9G8btRHHE5CzanwfGEa6GhY13/J+CVFRlfqvRNHn2wG3Tdxd76y12Ro4vKftIkVWvWPsz4fz9j2LcnBEfqv1nnfg51d6JsmD8+kW4zyT9CmDalosXa0tT7FjW7ZoPlSVrfXRRKZEk5G/6C4aLqeHyQPhen3Hr9RfeCFx0tWxDomOLH9TbF/Imj+8eQz21mnBeGBvNL1TKmGNx2zCR1y+/miz1fq4IhSTmybojMjOWQP8Tl7jGscn9ioHu1/pHjNcj002heKbxh1AbwQyv7+b+XSotxWNLKQwWjcc5+KgCjOwY1CE/4zeRJxf+Kjjv6lT3+6pkfm1Ij4KpOrz29CIxJPYLTjGojc+B98X+v+S/SayP/jfzDZih9Lnvbmh8VKRxqefV0VrHo32oLXKd6VQzSLulYNoKmKPZewVBFVOoD8eb6Ixn2aWJ/BUgrul+p9oLGA+2gdJBMVuvZcWS9RiN9r7ptg96M5U8Pe4MngJ7YPlXfTHxWIh4tFgidr61Msk+8hgtbGYrmgfLP3QH5f/orGIYr0mz//+FWIw3QJ0LuBQqLxx9a0RJyyyFV9iiKlLNAovC5UBLYI0PhuC1iHkaXQtYjzaB89H6JHLypBbJsOoLrybsUPQlCFZZvMUZ3ZIaXoOXYsIJuajWsPa1SrFlY8pHV08PGoaOhTwDvYNGS+jYyEXB4dFlihVJrZCfJWkeg3cjCJiPj2Rd+HciSN7t29J/WORzU/AYYfFzxgKihFn/DJnFi5ZuSF95/7M0+dzc3c9hg4IfIoOXHI7dg8RHSgzfkd6oQchiRaTgBtCbJscj27d8zN6EJJ8Enu45Jge8hkSSrmattlYii6ElEjFHm55BB2EhJvQqQdo0w0FNf3BA4tD6db8DJ2657QaY0oixh6fSUZ304eC8t59Il+iCwqvYB+3vIr9Q8Bd6NI9eW6Cn6t5fPpuiUYHwQMrswfcuRw/xF4uudgF+wdNVdPq75Ye6IJGMnXI6Yc1NSQoBqFD96x2GdcyE/u55ADbrumOeejQPfehBypeh2KWSPxgqONx8OLz/VUGXZChR1PZIA/E+DyF7twzDD3QMRLQ3HGG/tbm8Tu6c80e97fPgx6jjl7E/kFxjedAoKN10AWZaFfRmhbWUuy4IkaiMw/8B12QKJ7QfvAc7OiagnboJQgiAzNryJx95742ceJfu3jtrg+8PntzVjCRyR+gryBo63kOrnIhc/3MMf3aVmH6VKOfWrjd4yjQyq7gg8ffQVcCMrg/yIWDm6c7D5eKeRwsBHAXOvRMqb/QE5+8nr9ii0nBA+jSRnd8ymEtKeYq6FC3ruhIQJrUUXiX7Xe6wF7EhxweHYcNLscRs+6ZT9CRgFGSNAWbbJwcQL3xGYeOyWaAOIen0KNHyhmeRy5KprXwN8kykhUslBWGjuU0lEgWphXBRcnfgW4ELJak2sLRsS0k06BlDj5mkdtaGoFNLudbokdvTEc3Ah6SpNexyWQ1w9g+BJ8zeUmqR8rMCyo3tgotgPBoValcBrZZZLPkXcL/hxYs1odL87HJZZsoVoPHfehEwHRJehybTB5Fl4FUE9jjcjvQbAEFt6BDL8xFJwJuk6JEY0Z7PpydHoIX1GdSRdK15cYO6UctSqSMfNmUlm7DJotdNr0TfwTjsMwE6T/Y5CK384rwktR4WwoXBEHk2QQTAihpxt068qTUlfRKlR+MHlmKHvjktZSuE1x/zi8Yk6Z+geI5yya9OcOcq64KL5GGTS6LvMZmNqLNwVeESZ9jUyZj646Ad8IyBIezsUdRfKtk6EllH9KzAwo6WkVi2FywyXW4gDAmVXhaqm78Jd92jwuPbjH6KIoa2eITeBRNVQzBl/p6yOo0qRHJFOxRKiaCFuN/4mqogvh8p3RrZP1VqFE5KbayWA2t01An0wwDr1M1aHfSRrtUDJVWedifzxypzC5tK98071a2TfYeRy2LcvdbHvLHrcFUE1E5TnoMW3xM9SM3vIm9BfSWHsKWdYpoM2eu7cCJGopsPd7mh7bJgLTGo25vmThSdsun2M8VpUiPO9/emPC12pbNEVTcNv8oWP084wquNdw/0GkEPlEpow8ZHqANwTO8+C1uxM4CPpRuxtZe24vb32+WPaePoXijE3PP7MAZ0BP4UCVKjy1fJ92CLT73Ykc3TMa+fPLbSD9ic73NjelgPN35QQdrHHGtCY5OcJvft4JuTCu4IZJkC/aQOVmO5otfH9FYz6pJU/PrdRxncfmrHtdlxKS6AakAGkvwuUo343b/QnobW1xOufdb3I5dBYyQ3sOW77Qlr0iSWHOxWfoogjWUPWeNBNQVEX2+rWHXkt4F7lOwLFJBHHJqhq/Dps/3HHZVgDylA7q5khnsnmK+FO8yv9zeYtJqbHJZ6zaSJYGWYDBfqmhmLmRYgpgt40M/9LAddkLMLD26/haL+sLGMOkZbHLJa4udqdyLHQUMkspZXoaLjASAYey5hx4o1YWdIrhxQIUIKar5R9bL9V2qI3cC+qfyA/bjczheCtMfvQrruqrXTo2PUXZgsxEe2p8zgTi0fGGabaR7poG8h/VQTHa5c0/XoGWzKep1NqGXgpTXnnxupn2Ab2OrcsagJ22ir1DwoLJDH5T4uPNb2OYWbJQA7XA3enCpthy0rlQVlN391fYVSBFgPENOIIuxF5909eVYmmgqlVnqZ2RpQzr1rc9VRnuSRyHbTXZHQ5G5WWOs1jqs9zKa63FBQAh3Y6scnDO/DzBHJNejjo9tPCngBezD51xTNJekTtMIv833Ds+KOvyU/vOzulstJlG6aiSXpXS/RaRtIs1kGZqrNJkoSlP9yhgIWkn8Ax87cHiSv142KR3gvPkPiGhJm4P7GasrD+Xm8kximLMqLkMDf9JGVEMTk4akPH2Rgc7kDezBJzPgzi/Tj51Vw84Ycg52XT7INmEAYQvxMZc0qt8i2k8JlcG3aG4lovM0RlYY2xPmND1M6cYYvj6ABlwu8s3LJkQJoTvQ3I9r3nMMHWVGhV7llOtkE2+yEs8ZlZhQ/Ra0MNvtzHzrJCej4mv40J8ujvb7u/FpICS/xSGuc8QgljFF9kMecrNwesHnf+dk9U36xDl8zk+430IPkt+CJg1IM9jwtFCdNYiOPetvjY18kKHhU3AtWgRSUjzWkNH0eEWYwjo8VnJSy+1ysyYrrkcDjWuZD9KznOxfofNdIcdm/2AQTxOq4FkxmHGy5yYYWpdS2VfZ082TnBNtQXqljkRrHjalYyZneGnLnByfHbqZsjtvYJfF8W9EkPJSNxDUDP6Ltny4qeh+CvR2flQnbl24w7DDvDAqkmJggf1GceJqmig314I8AI2c+VsR1uCHGO1P0jpypDopoPIjtGZDm4Pv44ZeCmwDY+Qm2GTA/U+xroqAvcIkX1rM/4do7YxAM0XxVPH/05MWG0wgd6IVH5FOdn3SHNyydokTHflzIeU/5d+nudx5Fy3V7we0ZvEc2vH5k/9ksy1zEoB6n0o9uDIufKOt4TbgcZIvahFBS0QXaKvU4j0zfoAueMxYjvmWMXsAbUkZGEPR2plmpDl4TiM0Z1CdbfPbYUmLasEOkuMn0heDx5bPKq6RhRQi4vsVrVnUYH3TC+/ZJMQijegUf1gzH0BatSGXt0pBNE3MQDRTYH3TPwIeZEmfO09NBFpotUnBoTxRi46kKdER3fzKoqbjfXrsGaeM2K6O1rk1+JSFsliQkJ2chdjeRxs+X6M1k0YOFhbn+alMaSfb0+6ASAE7JPEkX0+0DqQsTTlWKCLT1kF8ElZwB5zsSDnN8CGDCqQJlyWyyY8eaMFnq9DydrPDTWATRrbhaBsUSXuQpEuOM6XraMuYiKPA70ZLCwVM22A5Rx8Q+xLQ6Ex6orDCpyuSNNly/e3qgRjr4JkUsBQsqjonfYpyZ0uShIt/Y0R80dyTv4tVphxl5ZwtbLUYdv/doltEj1Xkksuw0pBmQ5QMnNloasdJ66+hg0CpyoU2aMGiMSkk11nUoipphpvNmyRrsBI5ZwbkkVyL2EoHROqi4aTp5WbHS+NhfMrnO7TmUJkVOjDPb/5+I0fjXih79CAa8nFUP6QJChKiCLown4tLbMPeHrxgil0i1a5KpNABp7TmOqSx5C6uJqwGR7BvjcVs0pc76b8oNHmRYsP2O+Rb0Jbg0fXDeXyBtk6k10MjqbMg3lyxTHARZa5oBIpaRJLMqLmEzPOruIHBRjySSHR5mSgsrhRp7BooPduUlI++VpglIUlN+BYB3WEoevWfNf59Fm+hJZdTAe6AMfiEzwtozUNgedYHk1+hzESo8CHK0tHAGrYG0SQxA5JWl/O4wUB/eNcXRSazhnIGYZxgEJNUPyNLe5IR6mdCklFlfradEd8r1X6Xn7AsFlMhKcLk++l+kwyLPi2ojY/DRMagYPUTVh9qTK85PK1cYVByDZJn5X201ihN8r8eEFgCVNixdbsndw6wE9d8JoU5zlgj9Jd9j5Zc9tqCYPT8CD6UbBTWxXtm7n3OGR4RrScyNCPyha+0XmjJxxY0wQ6xtsKOPjBxluNe9wLPSR17v7ORWyimUoF/p4NZaK1QgbRm0GbHcDg/nPLP1nUSXYfOAmL7hHk+pDCbk1ejtQxBP0KGsvapo29elNfG9GUyw5J02pOMLBYxbpLMC0mV8gM0tnJCnKvIeF+sEo0Io0iiFinGK7UyaQ6+GK15OMpAHhfmn17DOIGLwtxDkk5Vnpq5q0Cb1Kqh8AKc1TSWCm5Tdp64U2yijbokI8tbaE0TFDxKWPejLMOHK9AoZedxnRfdMWEkIYZtiKGuSZqDsw3iJixlkVzuEg/dOSP1j9GGyUA05ANRi2Eo8iEoYMQyDWD/cKQWqvBeitncBYFkaKIWmlUqkiQo+DfHcaXDCd9nuwnD+AFQ9lGrA2JdJpkjqhi3kVbJhaCwX4nnA2CqSggmJNmiV9RNpFeq+jgdhQKXPIL6kJ6+7shxxrOluWjJEVEIVVQ6GnJZpLQkvXyXizMzmvAf+KscjcxlhKmWp0VvY5K15GwjSWpDCuLgB4KoiExgjrELhNmIKHtL8AuD0cSlT0+KfRTCPM5jTgvCEXRA8kQDJZKoxebwKNIcXKzmV1kkeuXzOcX2UJzTKYLRL83N0rINNviwMwB0hKY+Z73B4hS1ckdNRpNqpHyLiaSLN8MpS8dGT7RkUzAYTe2UGrJoW6bgRbFPECxDmoodJWUkCyf/ifz0yotH0meyZdSL1eo8+PU56cfZg0LBCsFEnQICeR3RJYswZrJ1btbmWWMGdaoummhKUokq7Qezhkv5fMX7srS8FwIbRcYRxsj53Pj72lUSGvgsMDWZ/+K7+IJYOtuOSMW6E8M/6EqTWYWps80PnW5FssuLOcWNoJakJMas1L3OtnQb65Qv3ooWjkSQ/BZiFqA/BlGspHIP2ulsv/zOwGRUCyRRCzGClQrYK8g9jRZk2nPyzefxBLtrElcI5HOQL1jIibXdSpjT2uCqCLyCRo6IxEVJKPIUbAby3voUj5WFZO5YPc9u9Yi7/pH3vnhZf//RMrcEdENn0W17dqvr71bszg3LWEnPwlcw16p35IguF1umae/xS3erD6+Ls7X7t7x42C0ESddhj2+RxzCZG6Y+1s5iJLxeYCl2tcpiVVHczZ/xUvHqXUbO+dMaDLJJW8WMJtHFRUukj7Tk8u5Z/H6fZHW43ooTOqXyk7ozEbGEQcqHywNdplPV6+yG4HT7ZXK1S8Y/pTQ/ffbozp2Fjqs8dspsAF7X9jqfrOxNE7XgsViNNkgkqf05wH+c2aBNMx3QHFys9F4yWjAwdZHiAE6Rx0klTJkwl0xV929AylNjk6U9frzf7+Q1+JI9v/xT1TEFTdSCjWaRLkZdjTQQ8rqKSSSHn471+ZOl5Y9x83vFaIkYlWgSWE7QpQ7pSxouffqWG+/92Hx0aNkMCd4XW5NBck0XFGW2T33j/RRSUroGcW1zmdgpJ/Nyz5/K3PdP2vqVv7EFqQ/300Ky6hmyZpASFZuyOEDozXC47B6ohN2Gt+SEx+QsWrZ641+7DmadOZ+bu1vs+LdQrVHdxMrxFWJKR5eIKGmKKtrJNjI2I3VrG+RhCeuaMMmFnqN+1DQjanEsagIoeCA8MqpUmdiKCVWqN2hAW5ffkRjGnNPy25WHVWW7lkYWTVshxhGMW0shAeKEZZ0C1k9uuJ+DxjkuxZaXhHSVM0hBJolaOINwzDoYZ1r9bXUYEnrsXCeXMNaIn4SPVRrDx91XKzZ38fywcwIJyEhBz7UN7Rhu95CtEc9Y9982u4/DAPJtlD0vLacnlUOH+oBtYs0Yj4ds3X+Gn8eWrlMRN6quhEtcqiAQXBT6UiDbbAHbjLyCQ27U/ngwLJs22c8GGFcdxpPP3ejDZB/2rwgr7FGbY4UldsYN3qATwZBEswmq6OFFhumdlsYVwGTs3hJDr4u2CEnWPUFRsSFQhSUaql9oMiWNh5aeMUUTtQhA91saA0prXlI7VnTEPDQIEqYe1QEzqtS0xujxuLEkMW5/NunXiTGRyTXTkaOZent7uJIsZF5Fd4Fswz8QZ9HOzeiP1ywt9twP/TJMMkMmjurmuXj2cDC3PdoERTgnliB/Wu9mDTuPtK9bn/6Cml7V2oORJUeLpGj3kdUPm/9hS/ktUmkQL9nFjQApkzh+1u/p7EDj69Evu8t/LFvbkYkielZt4C/+t2NO2tI1/LOYrp1rcDRBZ+7YMq7xSFJ4kpX8XrG3TCWFcvuzyd8m7IW6VlfU4RVvUV1Medtdu93O/EiKaFKYOjnN6llfEYpvWgwzsvxD80bdUU2etswI2soZNKeHyjPFRv0nrNJfgINwssGR8M3ZvB3Th3fUE/5K0IRSChM9TzOy2p2vzTuSt384ykFTo7b1fVWCtq5PYWKTd0io6xReFQrKkmQNCpUQrBBMobz99Xk5EETQhIo4c9WIy4UwST80CFIgLwVBLxBMI9G7yTlUeFilxwvVSbGthYpI1CxE1L78I4flOJVCJhmHu4ykhspExqclDqdy7vvuD9P0uYJh+a19bVr9aeLgx1DQDoeTyfpYSX+IF67VHiSj5C8Wfsdcc2600118ilfq6XOUjLGwQtNERTyjp2Z2+Ep37K4KxdRFTIQWrrxpiCEAb1vCJ/TsMwLOkt/V9OFoguzBE/v5/iNL+lkUdhqThCs8k2r5B5NGpB/fMezS/KUKidBOBeUKd9RkT16JbihUPi48Ij2YjFxAyRW/VNBEA70i0nS+lNgjkPYMGjKflEjrSMbUfqNtPkneGg6XHFv850/Ku4e4snIgZ5Xv1dWaJHUgVJ60UNDK/BPOvqjGJHme8Ghh6QlTUZRJdZMpUdhUNMJyNuh6OR59bYaV7yEjANO2iPDlJkwPipxiKN/4+9rmjJwcGDk5d+JIv1WRDhvWr+a6YVmsfnop0RQzD1lE2WLsOULfyUPXRH+Pg7IQRV173KkljvOqt7VhZ0i8SyEjRom9WqAGverYJEkXqCMqvyi7LFVgqqlt2GFbN+quf3y+87Z1oYsAxW8b1sOecnGdZcKeog1r/HQ1sR5tO0scb5pdOie+/1MuwpIvF5FmLOd6fYjezPqaXat/q5vM2BiPi+hfZgzt4G3mGgeWiKz8G1AnSb30lxRvhaIizNWYTWZYMphjTWeaVbZrMK7031C+0tBeqUevQ1HFWJvfnHQq4P8fiOKVRnMlJinrRpSAHjXq96VUMfMlIlXZIkuzb9Z9479qC9YMWeg/me7z69pxl3HiWRioiRuZgpVF/h3ck54/79I/YyXp/wEAavNi3a2sgwAAAABJRU5ErkJggg==;" vertex="1" parent="1">
          <mxGeometry x="160" y="340" width="53" height="52.55" as="geometry" />
        </mxCell>
        <mxCell id="LWeS2vQ3Frpwj3SJLR0B-6" value="3000:3000" style="shape=image;verticalLabelPosition=bottom;labelBackgroundColor=default;verticalAlign=top;aspect=fixed;imageAspect=0;image=data:image/png,iVBORw0KGgoAAAANSUhEUgAAAOsAAADwCAYAAADhG5ONAAAAAXNSR0IArs4c6QAAAARnQU1BAACxjwv8YQUAAAAJcEhZcwAAFxEAABcRAcom8z8AAESQSURBVHhe7V0JmBTF2cbfXMY/h4mJ0Zjo7s70TM/sgonmMCYajSYx8fdGZQ/uU7lPURQVARFRERC5UUBO8T7wQhEvUNEENZoYFaOCAjv3uTv1v29vDZmd7dndmZ1zqfd53qdnuqu++uo7qqp7unu6KBw8WNe9y6HeOue0cM/KrZ46x2/lbgUFhWKC67LKk0I9nW+IflUi1rvSoL+nc9XHl9mOkUUUFBQKDU+1Y0CozhkUfaqEu8Zh0FvrEKJfVxGsc35a30M/XxZVUFAoFHy1jttF3yqBWVW4ZKLGye8NvTjLVjF5p8oqCgoK+cSHvY77hq/Geb/o39WYRROTNJFMWH+t05hlA3XO9bsuPvYwKUJBQSHX2NPd8b/+WsezTECzBDWjB2R5f51zi6u66ggpSkFBIVf4vLbr4Uy4dBI1kayHpfO2+l7dvitFKigoZBuvDTzxq5ghn8o0UUkui42ErXG8+Ok5J35TilZQUMgm3DX6qo4kaiJ5ruup0R+SohUUFLKF+h76dUxUnnuaJV+6jJ/D7q+23yybUFBQ6CjcPfS/NPImh1qnaeJlSh+vEvepQsLq58mmFBQUMsXnF3T9ob/WsTvaq7LF76gdJeVRrq/W8YW3tusPZZMKCgqZwNVDv4/L1WwnapzxC0711fq9skkFBYV0Ud/DdhHvTvImJVi2yZsquMyur7adLptWUFBoL/h7qqdG3xVFEpklWDZpzK44d8Xsuk02r6Cg0F64avSrs/UzTXtoXB3mgwDVznOkCgoKCm3B1c/xPW+Nvj/cM7tXf9uiMbv2cDwv1VBQUGgLrh76VfmcVeP04dyVT+/46vSfSVUUFBRSITbM8nVXtf4xf1IxS6hc07jyXO24TaqjoKCQCp4a+wVcjmbrTqV0yaU32t7F2VWom/0VFFIDs+oG/lxjlkj5IK8MB+qwFK518iejL8BX/HXOZf6ezhGBGv13uUhgMfDEb3JwCNQ6ary1zhtcNfrdGDAeddfoL4Cvuqv1bY19KrfANpfKKgoKhQeCc3e+LyyZ0Th/RdLyXU4cPEjjbqcaxx4c2xysdV4f6K3/Lpbhw+zefpVHYVCoC9Y61nhrHbs4QHBFEW/L+Iy24++Tkg8efM5neaUIBYX8I1jbtQwJ0NtX53jIjyQp1BK4LXrkBSjRG4nUTyZvreNDJO5yf0/HxbG+tm/JLqVEoK7yZCTmMn+dY388MTk4tfa2izjZJmb+YVKUgkJ+4OmhHRns6RyCwH0as1UwPpuYBWmxkskb6SlnXugeqHN8gqXsPGxbvAbVVVd5UrDOeT8Tk+Xx2VRma2zADFtfrb+3+bTTviLFKijkDjw3w/nfLAT0bs4UDHKcE5oGZ6kxnogRzLhI2tfcNfaRX9bYbK4a+wwMTA081p4ZNBW54uBtka46/UxpTgWF7AMzyZ8wiz5mnJshSbmcNAvIzkAmpHGeiYHIVa1Hee7JASkbDyMw4SFzqTSrgkL2EKqtPB+zynOcERi8vHBjFoSdlXwGN5vn4Fx2I1n/w7c7ShMrKHQMvhr7XzGbbmGCksV60ajUyCeQmLDuHpUnS1MrdCYI0eUQMfDE7+y92Ppjdw/duq/aVuWrdXbbf5nW1dOj0h7o7fyJu87+fTG54xcuAtXOU7DEfTK+DFRJmn1yKeyu1sdKkyuUIkSXLocE+1SV+6qd53hqHRO8NfpSbDe7qh3/wNJpj6tGD4ANTCCeV3GLY43uakfQXaPv89To//TW6luxXemr0a/2VOvnBauryqX4VvHlZbZjcD66wPhpA8HEK6VmgabYccpkVQ/LlxpEr27HB+r0ukCdYzHOB3d6avUwL2jQoQbxmb8HMol4cYfnULw7h+eOTVvsw37+lMByiTcBsC4SN+yvdbzlq9XvCvWsvIA/ucimD8BTVzkY9b/gfbWUl40LKYqpSR9hgN0uza9QzOBshwQb6a9zbEbSBeLJxf91yeYFDcphIlOu0QYvENU49/KuG1cP55/cl9o1HH+cV3eNCx9J9RVzQ/5EhJXSJ0JdZCpO8Idwd03lXzE7bmy6iaCrcScNk8nMobkgk5czMBOXWy6f1Xlp/ilt797Ty/EjGR4KxQScay7k/aFMlHwmaCrynJfLarNjirkl/Y9VTGh/tX6cDA+FYoKr2vEyZzEz5ykeXGxKVj0cUMlanHBX69t5Y4GZ8xQPLnJFg2T1+mrsR8vwUCgmwElv8UJPsuMUDz4ajxBWOz7jGyBleCgUE7AM3qmStWPkhTCea8fPt1ORy0z+BBX/LdpMViHZiDjAzLpDhoZCsQHJ+neVrO1j/Kp1/H7k+E9b/M79xn/mVOs+lPW4sZxsxmrsq3YEKcN4iiahPj9TBh9KZyInt5svUpf6ascKGRoKxQYk6xscUc2cd7CTN3gk3szBmzuQbPWeWn0bknK9p9Zxs7/WMdRdp//FXav/qr7G/nN/T+uPec7HO68SyX28yuq9THd6avTf1VfbL0RiDnXVOGairXWQ9Tq2X3IGjrfHBM7nFXq2ub+H/RoZGgrFBk+140XjzhUT5x1sTJ71mKzeGv1VT7U+K1jr6BPpWXVqLv9oSlRXHeHvVXUi2u3trXHcie02bI3fnKkPdcvl8pkDBdrYvbeH45dSJYViApZmmxgMZs47WGgkKJKBpwNIhv8gSdYE6/TB4d5VVdJMBUOwVisLVDuqMYOvQOJ+arz6BboaNzCY9KUj5J1ickn/5d4ah0OqoFAswDnKWjrfzHmdmbzQY8xYIJJzFzg/2Ev/QzG/OIzvYsJ57TmY5e9B8tbTb0yubM62TFjaBOffH+/v7vipbFqhGIBzrzsOpmTlRRzec4zkbMSy77FAnaO7KME3+/EcOFhXOSxQ69wh+jRd8MrWE0nxhIWNdn6MpblsUqHQgIMnHAzJaryADEmK4N6LJJ2NmbWbNEFJg48vhur08wI9nc9wljWS1qT/6dJIWNgL8fG06N79UNmcQiHh7eG8jA42c1ipkwHXdD7aVfjrHLsCtY6J3ssqj5Jd73TAuSbfR/W0cQU7SxcNed+4u0ZfIJtQKCT4k0Ohf9/LNpmkWMJhZujKK5xfhHo6x37Qvfw7ssudHqG6yr+g369wxcSfm2gPMzu1h4wLDnZ7e+gjpHiFQoEzjata98G5ps4qNTIwuRxkkPLBeb5yRnb1oAOW+v0w237S0Yf3eeUZA17jvkudv5GiFQoBnvPAiZ3mlkPOJgisf7qwJJRdPKjxaQ/tyEBPxzy+c5jL40wSNj4AYrXy4f7uJx40K5SiRH2NY02pX2QylmvGstfx0H/Ot39fdk1BwlVrPyvY0/EObZTJKQ8TlnVd6nbEwsJd7RhVqsnKIOIyjfr76pxzZZcUTPDuubZvwUYLeEGRF97SnWWbzl/5MnBHdylSId9w19h/TeeV2kUmBpt8aVsDPg+S3VFoA94avTZU5/QwadNNWC6n/bWO3XzFrBSnkE/ELv71YRgtP4sgYc0cVIxkkPE8O9Sz0rvvMsefZVcU2ondl2ldsSLZyd9SzeybirR703LYvkSKUsg3XNX6+lJZCv83UZ2e/Zfqv5NdUEgTvDvJb7xFkv/Ram5rM/JnMc6w+6qdp0hRCvlEfbWjdykkKxOVKwAkamB/D/tpUn2FDLGue5dDcfpzX9OfKpvbPJnG7IoldH21vp2/JkhRCvmCr5fjR3CWnxdrzBxULKR+HNW/7GH7P6m6QgchJnf5H8yWKzjDctY0s7sZuYSur9H7SjEK+QRGzIeL+dbD+NVIzKiXS5UVsghvrXO6cVWdb7wwsX8yjYfxq/VPivlJpU4LnLdeWsxLYY78fEpIqquQA7hq9KsYA+39ZcC42NRDv0pWV8gX+FY7vt2Oy0wzxxSKxjlS0yDyPJdsUl2FHAEJe4txDtuOhA31dKKcvl/9lFMAuGodN9NR2Ap3kTDSu1L4ezr2762pOlaqqZBjIBEXG0/cmPgjmTKxJ8iqCvmCq6ezwt/LGQaFuw7OKDC9PbnUqhT1NY6LpYoKeYK3znG/GICENfFLIiN9KoWrTt+l/tCqAKiv1VeJgVXChURxF5BsXwzsKurr7Op+1ALgQyQfBsttYgBigYmZ5J9Esoy7p14rqyrkC96+9spAb2ejvzcc0atwjGBG9fZ2fu7q5/ieVE0hz9jbs9uPA32cnzXAF8bgbeInMtYfq5+ejpdlNYV8or6XY4UYjHNXJmwB6AHFoCqxr5f9MqmSQoGwp87x21A/ZzTQF6dGSX6K09vHIVBG+PtWniSrKeQL9f21Mn8/ZzAIB7jhiHySA4QYjKVXb/1ZqU7Jgm8kdPetstX30v/g6+v8oyuB9X31P9T3cv5+X5395HB/3clZLDbM8nVZtaiwt5d9pBjSVXhM/HXAZ0OqRH1vx3xZRSGfqO9jnyKuwLmIiXNySX8/hwj2dzbu71NaLzUz7gTq5Tgh2M8xCH1Y4uurv+rt6/jM3UdvbBxYKWKDQG4lua8BDPV3Ck9f9l33Y/shZqmXfH0dK3z9HBN9ffSzY4O6FcXbLjB4PsyENPMZGUY/3L31L77EACWrKOQLvLqH89d/xgbDCX11BFTuyXbEFTg/6m1fJtUoegT6678L9tdvDQxw7Az0xwxzeWUTBzlFeAAGH+zz9tNT0gf6++sYoBwiOpCrCud/ZeAzjnuRuK+gjWmBgfqpYuCJX5VN5xW7+1Uehb5+QR3NfEeKIZXok3retSDwDLCfFkXA+BF0HgRVrhlCO77+eiDQ2/kTqUJRwn2F/fuhAfqI4ADH61EkJQeYRiYWks6sX5nSyySGTYwERhsNaCswQH8vPECfHu5X2VWqkze4kIgcRFL1kzpiANogiyvkG/V9bNc1DnEagePJId2gGIZlVj970d5SyNklPFC/PjhQ/1wMxXIWdvENMO9PLuhFWw1MXLSNATQWGOh4NDTQmdeHGlz97BvYPv2VrF94EAd1uyumruAXBgiQMxsvR7IyKHPIIBztH1ics+rm07p8xT/IPio0SN8thleJyGAEpUkf8kk/l8xIGs5mocGO7YEheu3kLrm/HdM/yPpj/yCHJ5zCBtQJCXuhLK6QT7gH2FeJYXDAQDgjhxTDMVoP0BfJZosG+3EqEBqsbzeSdIgMUBP9C0UvKK7AbAsfBQc7XvcP0s+TqucM9QP0sWJElak+9CMGdvVi8HzDVV11hGegvT58OYJ0EJyRI/oHY2Yd4mjcN8BW8H9uS0RwiH0K+35gsDLRvSgodRNDm5I2MMTxgLuvzSa7kXXwIhfafK8R7SXbpREDh2ug/R310EWe4R3sqBYjEKgJzsgFORq7BtmL5nfVj2rsR4cudzwpRlUx8IXbROdipRcDnxiJpfEVuheD4HDZpayjfpDtYsYG20tsn/byDrJHXQOcFbKoQj6AIN1Ax3vokBySbXBgkM0WFPX9HSeEr3B8IEblvt+5ohsMD8WKAINN8ArHI3txnim7l1W4B9tfNQbzxPaHSH8OUT/h5A3G3TdD9C8jw7AEhgNyRSl/j7i88G8c+GKgfmpoqKOewYa+t9C11OgFxehKJu4n9Zdrf5DdzBpcQ+x/jI10Ct/lzdtlm7DfTbKYQq4BR5/ZCEd4r4AD6IwcUYzBEvhy+1LZbMHw5SDb70PDHL7YCKdwm+hZqmRf2KfwcEej9wr7FbK7WYP7cvs2MQrnrgltGquSIfZHZRGFXANOvkmMhdGZrDkiB4IYHO26XCvou39dQ5y/QDB7ODi5k3TsDGSfQsOxLIY/kbAzZLezAu9Q7YwoZ9eh/22vwRjw7P8Sk0/7iiymkEvA6C/GRmPEpBNyxOhIBwLJ/vmnA4/+pmw276gfqpUFRzh2s69Gopro2VnoH4ZZb1yV8A3L7g33rivsryTGSgADA2wZ2jekuO9E6xTwDLP8wD3U7g2NwPkkHJwrinGYuYfqq2SzecfnY7oe7humv0U93Aw0Ex07Qi/oG47ghR0xIBjkZ7RpWj4fpD5iQpXwDs3eb9qwXa3hy3gbYAQDcWCE/WRZRCFX8A7X/9A4BuercKwnh6SDvUPtPWSzeYd7mL5aXFnVFGQm+qXLAAJUwG5ifKXRN9owPAqzzHB7xDPc7vUMs3vdw+yRCPbxuJjQVI5lDFtnSY9WiTbYFvvtHmabI03RIcRGHXsY+vWfyGgM7rId9ss1zFEjiyjkCp4R9gniSoyUcQfngEEENrYh/6jC/OFx/VD7AAasd4S5fu2lfyQDEwmKxIOsELjNN0K/wzfc0cc73H6We4T+K9coh8V/he0Y30j70a7LHZb9w7Xfeoc7qv3D7VP8I/THUX5PbGyTjOgYJG4HdWoP0aaRsPXDbNdJk3QIGIxmJsYM++Iarl5TmnP4RtjXigmYWUfYc8bYeCMoC/IqkOAI2/HB0XZvZAwCy0S3tsg6gVEMdqcIYhsYqT8bHOMYGByjlckm0gKS5gjfCNufIGcO5H5I25McCDLRrz080Ae04x5u6yNVyRgYiH4exkDjH9kkn7bBVj2Mnkvw/0s8I2x/j41DMtHwOaKYCGeOtE2TzeYVCNSH2L7HRK/2kAEeRKKHRuvLI2PsJ0qxWYGYfOI3Q2McF0P2poaxTQOCb5S5HtkgB6zwGD2KJfFvpAoZQYguh7gZNxyEIddI1pG2++VhhVzAO7zsKM9ImzeMQPEySHJABl9sggPb/P9k4x6hnc1E9Y821y0VPWCIyXN1pQiN0be683DxJDLOfhra2sTAZxJQBzPdOkLKFPBFYIz9k8+GWX4gm84I3lG268TVSFLKvBL6jrQ9LQ8p5AIMwuh4nIuNgTMZ0Dkggx5BEvSPsx0jm80LjFXDKNsOMRGjv4leqWgENIIvNM4eDoy1X5mPR9ESERijXxIep38gJmGQyYFfPCBlI7k6dCODb5SzW3CsHkPiG/ZC8r4kDynkAu4xep0xOjIocsQYHTna9jaXTrLZvMA/2nYu++Yz0SkVjUC+2iHC4/Vd7rGF+yni4yFVRwTG2ZdS/wgGU+plpm+mpE3ENZXCNSrzP/4yBsPRtp0xDIbGzDratkMeUsgFvGOwlLkGyToWTswROYqjnY2yybwBAb7ZaNtEJzN6GMAoHxpv/6drpLVciikofONsfcMT9KC4CsnARDPRO1NGJugiOMHuq8/wQhnhG2Obxfhp5OpljP0f6j9ccwjPWNtqI1nHwYE5orjWSNYbZJN5gXe87gxOwBJtvLlOyfQgeMUkLH3H6x/uH6MfJ8UUBfaNtv0GCfuZsXRlopnonwmNPsM3njGZL4ddo+1nxbASYbIilj7mm/3lIYVswzPO9hKD1MyZ2aKRrONteX0kzjvONl1Mbt8g5AGjmLlCE3XXvpG6U4ooKrjH6dbQlfq/OLBSX7N+ZEI/BjPKdI+znyObSgtisuN/kfSuJh/bPa5R6n1MWQfvz0VwjghNtPuCV+o0dE7on2AXDVfjnGuC9lvZdM4hunc5FKP8+40Y8c10SmYAOsaucYj9Y7WcvyKlI6gfYTsePvtQXItZzKQfmZJ9d4+zvU27yabSAgb8WWJaV+hke2XnZMfX5G6FbCBwpb1H8Cr9PXG9UwQnMpHgtBzRkD/eFnWNzd+bBFxXar+IYIDwX2muUzLF9ZXCPd42V1YvauwdY3HAd/UNWA1ly28+kLHgHqfVyWbSRuAa5yme0dqR8qtCR+GZ6HAEr7Y/SsdwdPYymHPMaFNQ/WfXqGMPk2rkHJ4rbVeLG7AsM9EnmQ2YVXwT7R/HxnQ9XFYverjG2v8Ygd5IWtM+ZcIY42FC5rOrQhbhx5I3fI3uYxAjOIU3T8Q5jfBcad8u1cgLkKxPckAy0yeRtAPt4crz+XQ24JpgmySmVJr2KxMatoDNECfnyyYU8g3epRKcpG8UN1aKyDVYktI5V+WPMmkek+rkHJ+POepw95W23dFrMeuY6JPIxuuMgeStUv25AXZ9kYNNtnxKWe6J9s1SvEI+4brKdlLoWvs/xdRK4bsaDikAxY0Ipqtsa6VKOYd3otY1MEkXgUnm+iSSurmvtveSVUsO3vG2qtC1ejSIQdisf+mSNoM8DK5a3v+q46BG/UTt/Mh1WPZOQbLQGQzeAlBMNdrP27+ZeybaLmafzXRJZHQyVhlX2/fsmVz4F7d1BO6rbHPFNPQ3Cz5mnIhplRxcZ0nxCrmGb5Ktd/QGXTRcj1Fykq2FU/LJfCcr+j7OCF4TXRLZVMa2WFYrWXxxlf3owDU2b/g6+tq8r+mwEXHjmWT7SP0Ekwdg6TtYTNVF5HoY/xqb8BWYYpqD23wm621iutFmSvqvhV6wkf+a4v5dtb3wTNLuEDe13uf2kraJTeGy2vZ7KV4hF3BfbesjpslEhdF9RUCZOHlLVu812nKjTRNd4gzDPr5rNL9vsuNHslpJwz3ZrgWvt0VD16FfJv1Nl2KGQ3iusd0qxStkG+5JtnOjNyJRb0CiTobRi4TGiH9tHmfWa7SVRpsmusTJWRU6vSWrdAp4r9U2tdXv9jJm2Ef7m7opPwfgVd/wjfZAw1SZqNcVD41RerK2Uqqac6DNFWwzWY9E8rj/OlvR/YNdR+C+ztpL3Nx6v9vL0A1YDmOmdk2usEjxCtkAEuFIGPcjcRPOM2js64uLDCDolbfXfaDNFUbQmugSp5hpJOswWaVTwHeV/WgkmD88BUthkz6nSw5o3snaJVK8QjbgvU57QtwCw8YNjVGxmChmYEl1vZa3H9rR1iomo5kucdJeninaEFml0wCD4hbD3iZ9TotM1qaYysqbEBUAz3XWieJWp/BPMTF4kZAzPhJop1Q55/DcoM0Rs9qRrNfbBssqnQb+G7SpbfW9veSA573B9oAUrdAR+G+wnxiabm8MT8Oyh8lapIxOt2MWs+2JzbB9S6qeU3hu1C43AtZElziNWWOKrdO9kNpzo/UCMVNvGrw7yBhmaCTru5PVnyR3DPwDIO+NtjfFLBj0Rhi3iBniYHKjrSF0g26V6ucU7hutfxW3IGBNdIlT3Mpk1vrJKp0GnqkWR2CarTHYZPMOMYJB1nej5o1NrTxKilfIBFjqTRCzncI3FYYtcvpBJo9rSn5eQxqaoVvRZgNWHab6kOJ2LINvtE+WVToN6id3+673Rm1vdEbqvreXSHrRADmBaer/azJGYErFT4LTbb7IzXAIDFoKFLMxk91oGye7kFO8NvDEr3qn2j6IYTlopgvJZPVN1e6VVToN+PZIz1RtJwdHs36nS2NQm6Zl/PbDgx5wxt3iDpxz0aDTS4NGcky3rZNdyDmQiCuNAcJEFzLG04dp2tso2ul+9Ee/totbkaxJfc6EjDPfNOtEKVohHYSnO7uFZtpjwZthzJtKh41IDozQebs53HuT/TIjWU10IUOwX2CGLRqc5uh0P/p7b9JeE7chWU36nS7FHCarNkGKVkgH7mm2+2lAr4lhi5kBJEfkFrvwz7CdJLuSU7imVx2BduujaDNZlzjFXIfw32QbLqt0GqhkLQJ4b9a6hmZhVp0JQ84oPYp5OP+5ScvbRR3vDG052zTThYzNxlL4Ju0NWbzTwHcTlsG3I1lN+pwuOaD5ZqhkTRv+m61LxJ268N+slSTFHXaBBHpNdifn8M+0/qrhdrsIzjTXh/upk+/m/P9ZVi6Bvr0pZmMVY9LndCnmMelVsqYF79SyowK3aL7orTbhZ/CVIMOzNBGapTV4btHssls5h+dm67MMODN9SDEHQT1T25Hv/+DJFd6fbfm6b6b1w9jt2YkTTg6Bmda8XMXvNMAoN1LchaC7BUYsYbIPCKZJsls5Bwa438aQkBgkTPXBcUMnzwxLp5g9YrMc34N99zfchmRN6msmFPNxqjDTOkaKV2gLYl2XQ+GAd8U8zAIMuhJmbC6WnbdY/57P5yR9N1vXigUYJBiAJjpFMAtFZmsRzCS/kFVKFly1oE+NISarSV/TJZPVP8s6SIpXaAtGss7S7hWLYLhbYcQSZvA2TTQgYT23aqfI7uUc/hm2Y0K3a/sb5iCATXSCbbHcw+w7W/vYd3NpvznCO8t2OgfEgEk/0yVliPnw1SzLRVK8QnvAe4EDt2mbxGKZsAj6kiQDYCGWVrOs98iu5QXeW6w92G7wdhOdQB/1wuyLhH3dNbl0/1gJs+BQ9sOsj+mStorNtQnPTOupUrxCe/H5zK6Hh2bbtoglDlPjlgojd9hEcLYW8M+2HCu7lhf4brXe2ZbtuHoJ3WHb8SVmY1mtpIA+LOeglNyvTAgfiQhWI/tnWbtJ8QrpYO9sy7dDczQkLBzCWaJESf09t1rz+m5ank4E7tCebMt2TNjIXNu/XLOsv5RVSwbe27Q3uXQ161cmjN5pE6G5tm31MzP/s+WDGpxhA3MRdEt1geATfoyApcboPMyuczSvf05+ZzDMmN9Cuy/TdmZ6kT5QLLCLyDxbCAPjBJ6CyOpFjcDtjp8iHkIYaEz7lQkNW+DUKzzP9on31oqi/N/aogefLAnN1VaL5Q6MfDAsk7bEKJbh3PV2y12yS3lD/W3HfTc8V3tOLMdgN8dcNx/IAYVJHbnTtiMw19qjI/c1C9TFAHtJwwLbIO+d5T+Uu7MK3x3WAcaqIakvHWVTwtpF+E7tU9fNlrz9bWenQ3CubQYDqmG+zQgwP4OvRIjRWoTn2xq8c2xVsjt5w4eTj/tGaJ62ioNdtA3biYV2Y9mOZPtHdJ42xT/X+iuxrn2JG16oO1HvyvCdtncpQ6zEOfMd1n9wwJBFsgb04UnjAqRJHzpK2of6B+dpb++dbPm2bFIhXfjmaP0jC2whsQTnKjQuZ9oSIPQ2Zi7fHOszsit5B2bMMZEFWtg4pTDRMU4eM5IWszGTG4n+L8w061kfx8/DkvE8LOnP5WfPHOvAwBzrnYF52k4EdyNXEKxLOaiDPtuF9057pVQhK+DpBHQMRqBbXOesk/6624HEta6XzSpkAvdsy6+RsG+LexwiiIAwjDuv+ImANhIACVuwf3JzzbGdFF1oe07cjaRa1JRUKe2H/bRvbCGWyExCEoNkM3If+kRZIfoC9Xyoh1WEEKsQ7HOtD3JZLJvPCqDXELbZQt8s0/AX7OSb1/leiZNX8Epx5C7bIrGsKWjMjF2MbFhkE8G7tP35vtiUjOB8rR+S9n1xT1MCBmSitUqUYblEcl9iGSNJEeCRhbbG4HzrdLGue9b/Wdw71/p6DDN2Yru5YpO/bG7/fOuPZfMKmcIz33ZxdJHt32KlLsILcD4WD6AiJfUTKzAr3Kk9IrtQMHy64OhvIqkGRxZqb3C5Sr1ii43BpIXerTEwH31a3FQfPmiAvAf9C3JzO6N3nu10JioGG1Ndss24v7BCyNtfonRq7Jp17PeCC7Xbw4txzrQCyzEG23wrgqg4GbzLKsRKu/DMtRTLi7cPCS7W/hBepM0PL9Q+YMJSP9pS3A0u4zLYhDzGcvgcWYTz2oXW6bzIJGXmBP55lqfEPZhVTeyaK4YXaCKyGKuGhdYTpBoKHYV/QdkvIku0R8RyBNI9NhFaAGMjMYqR0SWaiC7Wgt55xfWv22LZcd+I3FVxcmSxdVhooXURbPhk4C7La4H5lrfA7fj8Khm6y7oNxx6PLrZeH11U8XvWkyJyhuD8it/H4NtC+JWDEhI3b+/VOmgQXGz5Y8NS7SkjaWFkjPoiQAcXEf0MgBVYci7U3hFzS/vfyPOFwALLdg7CZvbMNRlDoUXWaHCR+vOqnCC62HZ6eIm2IbTEGhGruaRDciyC8RcWCREE1CuwyPqwVFkhBTzzLZfTVkEzO+aJRvsLLFOkSgq5QGiZZg8vtd4QWWJ9lyOzkbjYhhfDCUzeApKDh1iDhF2Y/7ubSgX1823Hh5ZaPQ3LsUJKsl8+GUPM+BZYPhALTvyqVE0hVxCbT/tK9B7tjOhS622YbXeGl2pGohjJiyVpwzIsdZbAMfEk5jbXRDshbMVau/Avst4kVVVIgH+R5Xn6CPYxt2GeyNhgwgaW2n4jVVPIB/gHROHlWtfgUu3y4FLriuAS61uBJVZXBAnLxDVzVi6Jmd9I2OCSCvW3gwnwYtkp1ukiaGKzQlCs46BhmSrVUygUvPeU/zC8xNoNI+giJg6SN68Mc6Bgwi5T50WEZ0HF+eJenK5w+Wtir0KQ+viXWLZKFRUKjS8X274VWmbd07iSSx44KY8ML0dArLcLnGfPkeoclPAtrfh5ZIXmbVypCb+JnQrFxnugD1ZgrkWl+4aNTgffEks/sYGzHJyUZ4aYsPfpInyPdf2uWcceJlU6aOBaVGFB3z8TazCLMUlMbFQoMh7EWpsILredLtVVKAb4l1u2cpbz01FIoHwyCIqNdhFeqb3K4JUqdXrUL9TKwiut/xbrkKgFsHurZKIiHqL3am7O/FJlhWKAd2lZVeReazSCpVjgbjgr30SAcHZHcHzhX15xrlSr08KzyKqHV1k/ZJ/9TA4zmxSC0CW8Ar54wC4iq7SdviXqPU1FCc8yy7XiQXuT0+7JP/1ol8suzjQI5Jvy9c90+QYS4tToam2P2IAZtUC2TkWxvsn+oZXaAr4qR6qsUGwQk7v8T2CF5RUuSf10HkbYvBPtIlEFB43wauv2wD2d63c+3wpL38hqLcykKJiNEwkdgtgyQTmbYhB5HYl6tlRXoZjhXmGzhddo/oa1WA4nOzbPFBttIrJGa0TS3uq+2/59qWJJgo/ohVZb54v77aJhjSb8Jv3NN3HKIagPiSR9O3ivdcDmyV1K4iVyChK+5ZY+nNlCmOECKwvLyGok7cM4f1qr7YqstQx+rQRvf4uswbJ3rfUt9iN0r3k/s80gfJdIthvFICE2gA9iFqV/77UGwqu1R8JrbN3VbYUljMDKiiXiURscbSkKig1I2ocw0661/D28ztq7vS82KyQ8Syw/iK613NGwDrrfr5n2KxcM3Qt7beSsCT4A3qeJxrVM2ApvZLVlJ7arwmst/cRq2/FSVYVSRuwxy9dDqy2vM0ECDAIEQDHQCMKmpH0ntMYyMnZv2VFS5aKB4Fsp1lqHR9dZPhWP2DCjYXYz6UsuCJ8ZCRpcVTEltMpyEXzXPbS6/Gz/mrJfxB4ozX8jUGgHgvdoZZH1lr0coQMMBgRCsdBIWiRCeJ1lb2htxeLoWu2MQi+RfeuO+1FknWUkEvWf1E3cJ5PURP+cEG1xNQRfPSBVUjiY4L23/Izo/daGRgYeA2JNERH6xLg8RoByQMFM9m54vWVWbL32h9iK/LwDl3/dEVxTcXpovXUx2t4X18VU3xwyAFtwRoUOn3tWaUdK9RQONmApVSMeQjIgMYzgWFtElMEawmfj/Owx/gShidA6y2cI3I2R+7BU3qCdks0Arl923HejazGI3We5GTbZKR7AgIF2YxzQpD6muuaKaC+yHjo8qAnfqoo/STUVDlb4V1tGiEeMJBDBYiaClzqK+znjInkf50xnZTLvC623vBrZYFkeWl9xVWBtxaVM4tDqMk3cf9x3eZ7Jdyt9CHIrHsJ37A+uxanA2oqTw+vLe0H+TCy5n4T83UwMQza2GBSakiZZlzzR6O8mG5K2/EbpLoWDHf61lluMK8RJwVLsDG+wiEYm78MywZ4AH8NnzIiBdZbG4LqKL8FPUXYXku7j4HrQ+G7sD8VYl+VZDwMAvyPxTdsqBJmoGICelG5SUOjSBYF7gzGCM1BLnUhgJnF0o1XEuIx9sCW5n8fD95nULwIGQA4i4Y2WjzxrLT+QblI42MELKf51lve5FGagKxaWATD2sFVEHrQG6teop2IUEuBbY+0WfcAiIvcjWDjTKBaUDQ9ZRSOW5P61nf8JJYU0Ebyv4grxNJbAGxEsioUjEjXKZTpOR3xrKwZI9ygo/BfBjRWrjGTlzKpYGCJZo5hR6YfAhorR0jUKCs0R2Gj5m3gC56tmQaSYFzY8wkTVROD+irHSLQoKzSEe0o5EgLgbESxBnLcq5pcBUDyuYemLwXJj0fzBl0IxIvyA5Wcc1cMPI3geVMw3xTOaiD5u9YYesFwsXaKgYI7Qg2XniKeZrBUi9JBivkh7iy1M1Ip3fOstP5PuUFBIjfAjln7iOU2EmKyKeWHj45hRX9BE5PGK9a5VPz1CukJBoXUEHi4fzxE+9AgCSTGnDCJRxdMW0bDJEgs9ZpkgXaCg0D6EH624nqN86FEElGJO2fAkEvVJy0fBB8vPkOZXUGg/go+WTRdbkayPIaAUc0raOfhw+a3S9AoK6SH4SPk08aJK1nyQdg4+Vn6LNL2CQnoIPVF+rZGsjyOgFHNK8ZImAo+VXytNr6CQHpCsIxlEoScQUIo5pXjJKoJPlPWVpldQSA/hTZZaI1k3IaAUc8bIk0jW5y0isOn4U6XpFRTSQ/CpsjPFFosIP4WgQkAVgoVsO1+MPWsRwU3lfu/Txfd6VYUSQeiZ422hpyoaG56xCGzzTrHV2sRXNSFetIoGBLVZuVIn+xZ8suI1aXYFhfTx5QO2bwWfqtjDJVroaQRWPojgbXzOIsTrWH4/Vf5caFP52Zh9ro5utrwYfqY8LLYhcV9FAmPGjzxjUr8EKbZrIvh0+SxpdgWFzBB6pvwl8bJVhJgYuSSCNoyt2GYV0RcsDeHnKm7gv9tJNQwEN1dYGp6v6N/wXMWGyHMVHzViEGGgG4SOTODo5iY5pm0UIY0+Q/fgM+pmCIUOAgF1lzHLJQVZtmkk22uaiGyxPOt/uuyXsvmUiL107GHihYoTkbQDI8+WL8Sg8jLk7Ak/C1mvNMmi3mI7l9Eg5b+I5N6amjEke7JeuWYMOoWeLv9EbD7uG7JrCgqZASN/TyNZkQTZZhizoJFYb2giurXi7fAWS61sNiPEXrF8G/o6Q5st50S2VAwLP1c+E+2sxiz9VPDZ8teDz1a8H3q2fBc+f4rtf5K4C/QwoZP1zCXFDiyBn6m4XXZBQSFzhJ4rt0aeL29o2MLkKu8QQ5KUJV7j7Mclb8XfG16sGPj+Y5avyyZzBiG6/A9nsNimow7/PIm7MFOHttpskS3lX4pXkLAJeueChh2er2D/Y+HnyqqkigoKHcIhoc1lb4ptFoGZKmM2bCnHchTLzTeRoFuR/FvLn4i9WHZxsf2Jb/DZ4/8Ue7VCNL6IwcmkH9mkeIOz+PHqJd0K2UP4+fKp4i2rwLbdjDI5X8IM+joSFHVjCP7oi+U7Gl4qnxx+sbxSii5KRDaXD+ag0rBVJqxJ/zpKwz6vWTBwHXe6bFZBoeMQW60nNL7C2aZcRF5oYhTE7GjMQOJlcBuImYKJaRDlIy+U7eEMGnmpbGJka/lJUlxJAKuJiexHIwYcI8GQXFkj5IkdHPzKnpXNKShkD8Hnyl4R7/DqKpKS5FLxJQTeC2Xh0JbyfUjgd5GQT2GJOy+ytWxI5MWK34gdx31XVi9JRLaUjTYGIAxERpJhgMoGGzDoxSAz8lzZL2RTCgrZA4LrJ7E3tTOCL5SdFXy+/AwmY3jrcSeIF6zl4oWfHsGLN7Jop0L4heMvadhW4RFv4ZzdJPEyoXjbKkLPly2VTSgoKGQL3qfLuja8WrFNvItzb6wowlj+Z0rxOmbUl8u/EK+pPz5WUMgJdq5zfK1xW8UN0e3lYc6M0ZeRfFjOpkPWETstIrSlTL1aVEEh18CyuFvDa+UPiDdxLvu2RTS8ikTkuXs7KN7D8ndr+WIpSkFBIR+Ibq84vWF7+cORbRUx8Q/ehYXl7StISs64yWSiIrEj28p3qNsKFRQKhPAO6wnR1ytuR/J+zCWukbhvVoiGbUhSmbzibxYRfaNib3DrTypkNQUFhUIh9uZRh8d2lP218Y2K+ZHt5e9GXi2PiXeRvP/WRMObFdHAS8efJosqKCgUC4Tocmjsdave8EZ5j9h71hmhl49Xf3ysoKCgoKCgoKCgoKCgoKCgoKBQ8ujevfvXLr74Yscll1xy/qWXXjoa32fg+53gAuy7FZwIXlZdXX3CsGHDcv42BAUFhQTU1NR8G8nXHcl5N/hPJGMM+0RdXZ0pa2trBcqJyy677F/YLu/Ro8f5SObDpDgFBYVsA4lWgYSbie0nTEAmIhLPSEQkbKtkGZZNSN4PwGsgT72FXUEhWzjnnHOORKLdgsTyxRPULCHTIWX07NmTs+0XSNoJf/7zn9USOUvAKscBu/aCnafDtguxvceMWB2twGnLFFQ5pKmmQkkDzu6OxPpYJpZp4nWECUn7Jtr6vWxWIX0cAlv2gR1fgh0b46cg8ZWMGfv3708f3CjrK5QqMOIeCqffQadiBG6RZMlEWSOZmXwsHyf38ZhZnUTynJd1UX6yVEGhnTjvvPOqYLsXmZi0Y3vsTb9g6zr//PO/L8UolCKQqN+Bw5/kjNea43ksfmGJiYZ9XvDfqP8m+Dr4Hr7vZ2C0J5BYTra5EQFY0u8vyhdgt1Nhexftm2zP1sjyvGovxSiUIv76178egWR5tTXnM+F4XCbeFmyvhONPQ7IdgwT9mhRlzM4IpCMvuuii36DMWBzfjG2MdeXIbsrevXtz+8LAgQO/KkUpmACrHgvs6OIgmGzD1ki/gY3wmUOKUig19OrV6xtw4tbWEpXLYgRIGLwL/Jms2m5ARje0MR91AwkJf4D8zjYQSCNQXF34aAUYDJ9P5SvY17AjjyezX79+AnU3STEKpQg4eQ2XocmOJ+l8OhrbR8GuskrGwIxrh5zVnBUSz4nZPgJpniymkAIYzM6lPxJ9FCeTFFs3eC8GvyvBcfg8Pk7YmzeqFPWLxhVaAWeyVInK81Ewhs9jZPGsATIvQtJ+Fp8F8P0FLp/lYYUUgJ0ekUnZjNyH5HwS/iyTRRU6Ey688ELOclzatnA+Zz0kagCf/08WzzouuOCCYxFgL6H9ffh8tNytkALwyREY0OqT/UVfwY5vqt+sOzF4/mK2pGIwgJGLLrroj7JozoAZ4XDMBjb5VaEVwDe/pm+QmM38JS805WxQVSgw4PCz5dKpmeP5nfuRQD1lUYUiAfxzUfIVYCYvBt394HdkMYXOBjj3RbNzH860OLZIFlMoIsAvcFlzn/G6Arb8jVud73dGwLm/luc5LRyPff/Buc+3ZdGiB8/Tzj333G8hWP+X5Gf+FCUPtwCPxcua8Dvggd+L2wPI+y7s9kvMcDDhJcPAMViVDMH3c7F1QF7KJErWnUQyHo5Dpj9d4XjKZJVFcgbESzli44/oV1/oMQptjgR7gqdCpx/KYmY4hH1K7CP73Nr5Ncp8LdmnsKXp01pYadhoa+hxOcqMxrYP9Pw99uX1QRFeT0Cbv0L7DAQjDqD7YGz/Dz6yT548OeV/IpnFAWkcxIe7zM5VuQ8d7m8UKhGgL9chGD7D9lOSn9GXFfIwl/saOBa8H/v/Bn4UL5tIHP8Ux/7ZRuAZQPnvwDG9wIdRbw8TBvUM+8Upl6sxHH8X5W5nQsvqBwA5zXSXOryPzz+SRZoB+1G8ebKiDrch8EWQV9S3mhHljC382+6rxZDXDbrzoYAdYJgDfGI/+VkO+rzo9RS2QyD/e7K6Ad5sAzlv49gBW7PP2HezLNICKDuUZeLlYUva5RF5mBcmj4Y9r0a5N8AG2tpMJ5R5HOzZ2sDQEbCvkN8fbT0OfonPLewj46ARx3fCRjPBFvco4NiMxP7G2eW00077Cj58QsEQcoDsILYf56pjuQJ0nss7n9gfEjMdl/H3y5FuMRhOdGK8XDJZD7IekGJNQdvAsLwj6+O4THxusUKJk/vZJsvKdjZifzcproXu0rFRXiWXRZoB/UKTLU9d2A7rtkbW4xYBViXFpcRFF130M8hcj74ZDwbI4G/Rbpy0AWXLfn4KjoOuxgqFT26hjJ/H4/2Ud6otMxozAY5NSrSL/A3+ZR6DHiPQ3pfc15pe1Il9pk74/DaYtf/ZOeussw5HuxwsPk03DlAuBq6GHw7cRYYyyxL7Gycd4eSHZIEUBAEl9yQGnHgbdY/3g0bDvp34/C4dyu/xY62RwYTtmVJsC0Dmb2G3NynTzH5tkQ6jnqgbxuerKBP2np6sO7Ze7P+x0WgSoINpsraH8UCi/6U4U6DM9dAjQr1SBV9rpG2k3V8HjZtosH9foh9knxcaDZoA7V6ZaBfKRN953/l90oYHjrWH8cEKchd29FZW2O8PaP+dLMSBHzYZRZnYd0dif+Ok4XomH6AAacyfGxqVEODAZslKsi/pGJKjHuS8B5qeX2L/YMhryDRREknd6Gh8ng+58+QgceAYtgVJVrT5PZR5Ip0BrjXK5PBA54HgrkSZ0l/tTlaS+ifaKl2yvlw9bcLqMqP/3UE/RjFWOqJHnAlxwFcgLTaTyQaNx98SdzKwsf/DUryBHnq3SNZ0SaNBzgQpshkQxOMpvz0BzICI0+x4Iul0bKOJ+zJNVrYXD6JUZD1uIbvFMhj+PxIy3pDB0ybb20f2h4TekcT9mSRra6Qu8bba0kv2caNsqt1AH67LVxzEyUY3ywIHSEdi/0NSr0yQjxvvU10hbXeyst8sGw9cUtZtxOcW54kI7D4s25qDeIxlEstxG5fd2gyf7ExZP61klTJCOLYd3JaKKGdsL7zwwnIpzgD2fQ3HWn2Ig23E+0Mb8jsZtyeP8Xuqusn7ZFsdTlbaluWk3erBvWCUNqJO8XLJbG1wNgPqDGM7qfpIxnVhu4lxkBwbZkwllw1/nFxRGuZWqVtagKyfgW+jPslzxZwQgfE2gvjPstkDgNHbTFYaUjpvOwxzHer0gKxz8fk86H4B9p8qxR0A9vFKaCRVstHA0oF7weVgHfb/mjMX5J+IuheDc7BvF53VWtLGifLcppWsUm7GP92grTtbm1ETAm0zyAcCzgS7kejzH7GdiO0LCTZuk9JfHUpW6oVyu/H5evAXKP99PguN/vDxwV44tjVB92bkPhwPJQ9cZoC8k9E3XhRqIYdkv6Uu/8b327G9kP7H50rw1/jeG1wJ1st4MZVjRgYh7/dttpNC0EC7R5pEoP6prE9HcaTNFXm+AcNVy2YPAHq3mqxypPsMvERWaRP8TQxyX0tOjDipD+Q1gtNRzvRnljj4+xnqjIST9qeSF6cMiLSTFfs/5FV+WazdQDtn0T5mAcR9tCt0ehryfyurpATK87fNLe0JSOmvjJNVtrGxLdtDn+GgaaLJ2bXVm39w/Gso+3aqQYi+gOwvwSt4hVhWMwV9Cp35PrMY48dMXjKZXHyKptlO2Xk+R5o2UP8UBkxbDuooaTAYr0XCYV/KZJVJ9UF7RtBEQGbvVDJlcO+G8dP6K8Pzzz+fv/e+0VrCyqDKKFnBtG7mQPlDwbfMApG+ZDvY8qVqaQH1b5Z1W8iNU9o2o2SV/W/1J7ZEwJYIg5Y/8STY+geyaAvg+LBUqw7qBxktTivaAuqeiXpfphoAEkknNTvZJ9kw9o+V8tIC6hdlstIZ0CvE3wxl0XZB/g79ntnox35C7n44uM3fKs3A9x7BTjtTOSohgHKerNDjvGRZcUp7TpJF0wZ0mZIq2Uh5LO1klXG2B745QhZtF2DPBWbyZP9rZLFmwEruGzj2sVkcyAF7B/qZ0f3YF1xwwc/hazf7kyw7kUyuPWio2U52BA1Pk7LSAmT9jvXZKTbeEZqNgHHKY2fLZg8Aepsmq9w3VxZrN5Dcf0w123A/RtLzZdGMgPp8LNEnE7MZ85msKP+oWbJKu6V9tTQZkP9YG4NB2snKfbDNtbJYuwG/8VHMQLLNW9MDcXChmf6UAXow8Hbo39zRj4tTDdpxMlm308GJO6kU6q6SctICnMKLKR9Azgf43CFCxvtgfXLC8rs00kmy2QNAvRbJKstzuZ/278aQZ3orJm2EY+1efrUGBpxZG+wjtjlPVsj4Ieq2GDD4HbbzgT+RRTMGl4eQE0xug2wtSQjUa5Gs9ClInx64AywdwD5PJyeH/P6CLNIMaGulmY+4D7KMm1o6CvjZdMCMk0qvTC7AWQv735Ay0sUhXDpmgxQGPR5NNiodjv1+swfUsb9FssrB6POBAwd+UxZrLw5Bvb8lL30YKJQJ454sy3UIcjnsMksWbHOerGj7HLNRnXZE24tlsQ4DOrWItXg72KaVrDIG9sM3aS2B44CM25Nlyrh/J/kme95vgP0fJE9q0j8Z65AMyDqVOjC+EtuJkwXGmBkCWy4TjpFyCgIGHPhZspFk8rxt9uQCyrdI1rgTcDit339R50dgixmH8hDE76FI1n5PRjsbkgNZtpvzZIX8q5NtRsp+niWLdRiQ9ddUgwK2aSWrjIn/oP+tXnVNBdhnmplM7P9X8s1A0LsM+6PJSUTb49gaWazDQBu8yPev5HiPk8l6erLDSdkR05PtfAHtnykTs4VuMJLpMh2dzWaynkAHmTkJ2wNP8mQDaGtUst75SlaUXWTWNvZzoMrao2WQxVfU8h7YZm3JttNOVsji0yhNj46lCdi02X3YCTJbJCuOmV40lfWHyWJZAdpfbZaPJJX+Hj60OJdgBRx7XMooCKD43ckGJbkPx/rKYs2A/VlLVtTli7NTOWmqLJYVwNYXmC33sc1Hsq5LJSebt5xSJ/Ajyk5sS9qzaJMV7Z9ttiKQ+zp0gTEZZnrFaRTAh+eSlWGAIlgaULkgL4DmKAw9WozC8nuolcfG8pWsWf17D8j7S7ElK7bv43DKh6TTBU9bKFPKPkBpz1JN1r/IYlkB5E1O1ivOeIHLzX7sZSUov9oolGfAmHPMlGZQQafHZLEWwLGcL4OlXe6QxbIC9Lc6OWHymKwtlsFSzm4wo2QwA3Q9HLJbXIOQbZfcMljGYq0slhVAbosLX3EaBaAIHwhu8aMslZPnjKcbBfMEGOAE6NLihJ6kgWDoc2XRFkDdbF9gajG7yxH1GVksK0A7LW4cyFeyot6k5LZpe7Ax1SN0mQD9sEFmQ7JfZdtFm6z82QnHW8Qj66P8DFksK4C8TWazOCmLGA6bbTa7MtCh5Ad/ztN7mKAsn/rYkWrZgeM7wZTvMcKxrCWrXLa9LQesA5RJ5IFzj5RFOwzo91qKdnKerLD3eWb2ph1xbKgs1mGgH0OTfRNvB9uiTVbaEvyQxxPL01+Qs0MW6zAYT5DrTp4c4pTFmu7qwA7TO2nYKSj7sCyaU6Cdu1u7/xKOu1AWNQXqZy1ZCdRfliyPlDYxnuzvKCDP+H0tuY18JSvlo24o2fcygbMWjJD1t1SDArZFm6wE9m9ILg+9jNjC51NksQ4BOo1ObiORslgTUHhSG4myXBbNCSD/1lTKcj8M9pQsmhIok+1kPT85IUg5yu7u1atXh/+SEnJeMQvifCUrgfKbzfrJfTjWSxbLGOhDfzP5pPRXUScryqN4y9iU9nleFssYkM83c+yWcWVKWbQJaJTT/d9bMyoE8lGkrL5Amu1C7hIpv0W77AAC148OWWSVlICsrCbrOeec803U5Uu/mskkZTtrZdGMgPpTzYKAzGeyom6L1/vE5UGPfR2595VPGEGOy8yGpGy3qJMVg+m3ccx4Y2FiHZJyIG+8LJoRILvFzJ1MWfS/4FMpcE7Kh6wpEMffgXJnyCodAmSdBGe8kkpRJi+PoTO9ZZVWgXJZTVYCMsa3seK4TRZNC6g/kjOq2QBF5jNZ0cZhqP+R2XKcOkKX91Am7T+5Yh30732zlUOc0l9FnawEjk0xiwP6iXaDzH6yaFqAjNnJuphRFm8OKNWbQSCDpQVpeHYMRrwbZTL620fUrQBno360NUfSONCn3cnAsskd72iycnaFnA/N9EQf4gm78cILLzxOVmkVfAAd/Z7Tmo1JeSwvyUpQXqqgYTvoI9/X2+7/0EHZv7BOa/4lZZtFn6x88wR0+dxsQKOv2E8cvwW2atctkKhzDMqvl/HTQmYyZbWWgNJXtSaE++VxXop/BPv6wAAW1GvtSu1PoeAl4BrU8belpHz73D2yeruANrKerARWHMYP46n0lX3Zj75Nhx2qzO5bRn1exBuGMv9qq+8kynGbt2QlUO/RVKsI2pGE3g+CZ/ft2/dbstoBQNfDoPcZOL4uXt5MViKlv4o+WQnU48mrqe+4Tx57HxwBHi+rNQPaseLYNeCeZP+1RlndHCgwicJk0JgSDRqjrmw0gs7yFZ5P4PM94AJwOfgw9v0dW3+8bFsyGTDYLpWqtBtoJyfJSsBPU1MFMsk+xdtGe++C7PdKfF+L7cvoj5d9b08Ak4VIVrT1A+j5UbLcOOP+ln1gsvBdTKuwXQluwmfjAW2WYdl4vdYobVYSyUqg7mw5kZiS/ads6B2AvNfB+0DGAa/3vImt8R5mtpdYry3K5lMDwgdAaKStpQxJ51BRlqWzqBC3cee2lqBxxuvj8/VShbQAfXOWrATkLaOjWgvEuB3ifSfZp9b6T8clO68QyUqgvSq0vbctn7OtuK/jfeS+1mxDuyQfl/4qmWQlUH5tawlL0n/JcWDW/0RSB9LsmGy6daAgb7fayVmlPQmXCdkBykc7u/D5PNl02oCxc5qsBPSbzzZSGTVdUhb043/aPJ0os1DJSvBCI2R9mGzLTMm+UFfo9RC4OzFgZRsllaw8zYFey7OZEzIOeNPP5sQ4iFM23Tbk/3lMg2LGuWa2FKQcyoNyDfh8J4yY8oVV7QE6mvNkJSB3GHRu87y7NdIhcoDaAv1+hH3NbuKWNi5IshJo/xjIe4Q60YaJ7aRD6ghZjdBpLPUCd8u+GZR9LqlkjQO6jUM94/+TOhoHsMlTfBEB9s1M1o2UTbYfUEiD0DtBFwW2tbwzI8uzHuvjM++95VXltF5klgowdqpkfReHs5asBO+bhd730dhsk9vEds1Ih1If6Rz+bjcOooyLUQigZjdx4zj19mWQrPxnvA4naxzQuR90+SDu7/YEJXWnbjJReV77a8riFVXoxgtxB8rKPmeSrPyntWwn6wfpJCuBOnzg4xH6lTIT+5aKSXHwOb4feJsoPi9M1o2Uh9MHAwgChkHwM6Annnx0Dj9TkTj5nft5nJ9Rj8/PbmWgQk7av921Bhjurn79+hntxCn/pewTHM5qssaB/v8G/VmM7edsL9EOcXIfyYAA+Xd/k6Brs/fcJuvO8pBJmr4DCeX7As3akedR+3Asa8lKQN7/Qo+BIP8uMhrvT2I/4z7mFv3zotyD6Guzn3rkv8g1sFy8HvsM+StlkRaArMnJPpX99PJnMFksLaC921LI/CLdZI0DdflIJV/wvofyku0T30eiT/TrW9iORw40W01Czopk3Uh5uGNAY3yA/RQ0PAAK3ILP62GMZ/F5Kz4/B24E+XbyIejMaehAm/95minQhoaO8c3wfFO8Qeh1FnTMyvuSWgPaOAz9+yXaHMT+grTDw9iugl7TwGoct8viLZCsO/XG9vRUf7vJd1CZ9RVt/tbsp6NsAf38MfrxF7TFt+8vQbsPos0HsF2AfWOwj/+sZvqQAxMB9U+TfTN0Zh9QR5dFWgDHjjfrJ/b/Du1m9A/v0MFiJhPbU4QQHRrUEd+Ho/8nQ78h4B3QcQP4ED7zivCN2BKaLN4COKYn63bJJZec+f91wb1HcOLGgAAAAABJRU5ErkJggg==;" vertex="1" parent="1">
          <mxGeometry x="260" y="340" width="64" height="65.36" as="geometry" />
        </mxCell>
        <mxCell id="LWeS2vQ3Frpwj3SJLR0B-7" value="Prometheus&#xa;9090:9090" style="shape=image;verticalLabelPosition=bottom;labelBackgroundColor=default;verticalAlign=top;aspect=fixed;imageAspect=0;image=data:image/png,iVBORw0KGgoAAAANSUhEUgAAAQYAAAEECAYAAADK/Zo3AAAAAXNSR0IArs4c6QAAAARnQU1BAACxjwv8YQUAAAAJcEhZcwAAFxEAABcRAcom8z8AADSCSURBVHhe7X0LnBxVlX4EVPCJ+8fXgqIYCKl7qxMcRRQ1PtAN5jF9q6oJICzri3URwdeyLosbFVdxUXbdFVdFZUVFQVBXd1kfq+AbNSDvRyQkM93V75mEPMg78z9f1Wkymame6e7pnumqOt/v9/0m6Zmqrnvq3nPPOffcc+cJBAKBIAWo5KynVM3xz61n1cK8u/BlZdd+fdlok3f1WX7Weodv9AVFR7/fd9RFvqP/HizRv/mzC4tG/3XRUWcXje35rnpjOatfXjIZXRhUz9s4uOjwsVzuYP4qgUDQL9jkWX9W9Cyr6tqnllz7XSVHX04D+2s0sG8uO/puGty+b9RW+v/emmePPXJaZmzrqkVj24iPnr5obAdz5xmLD+AOkD7fTsTf4prNdG2d7kH3GisZ/Sjdt0rf9SB9x29Lrr6BlMi/kuJ5b6BEjP3iLafrZ4+tnncQP6pAIOg2xs5ZcihmfZq9XRrwq4nfLDv2GhqkdVIGwaBtDHIM5i00kDfRZ6M5ewwKoeLaY2WXBjQGNRMDvFU2rsE9cK8q3XOEuDGXGdtC3zNeyUCJkKLC328i3ld09ffp5+UVsjyqpDBgaXCzBAJBO/Bz1vOrrlpec+0P0yz8PzQgN9AA3YdBhxkdAxGzP2ZwDFQM2omDea7YUCBQSFBOsDhggeCZoTAqrirT739Oz/3pqqNWPeIsPnZsbN7juOkCgaCBqnnxcytOxqVZ9TNkDfyeBtejW1aRFUADCgNrlGbmflMAnRAKA5YGLJpAWdBPatNuavO99LurK55+CymUBSwWgSBduCdnPeGR0+yTYBHQgL+lQmZ3Y2aFWwBTPe5KoFVC4cGygAsEkoLYXXH1bSSTK6qOfpO4HoJEo7ZywVMRJCR+vuzYD42Q/w+3AO4BzO6oQZNGQlHATYJsYDVVHbtE8rqu5uk3l0/Xz2ZxCgTxxdql85844mWWkovw5aqn840gIYJ2MKujBoZwP2E1wfWAJYEYBVkSG+ue/d2aY5/pLz/uCBazQBAP1Fz9EnITPk3WwUMNZYA4QVrcg14RwVYoiCCQ6egqWRH/WXfVG9cMDDyeRS8Q9Bcwg5FCeGfd1b+EawBTGJaBKIPeEEoCCheKl9yP+0nuH6p41nx+HQLB3ALWQdXVV5KrUNlxRphDIG7C7BGKF8FLKGJ6F4+SUr4OVgS/HoFg9rB63ryDyp69suLpmxrWAXzhqI4rnD0iTwLxCFgR5Mr9ru5l3oa0cH5tAkFvMOyddFiVOlvd07djNSEMiIlC6DfCikBGJlwNelfr66598fqc9Rx+jQJBd3DHGzJPpg52Pvm1axt+rcQO4kHEeXaRRUfWRJ2siI/njX0Uv1aBoDPAQqi7+oKap9ch+Qi+bFTnizsRE0HuACygpCo8uHpQEGQ9jJCCvwy7Tvk1CwSt4frcvIOrrn4rdaD7ET/YRLNOVGeLO6EEoAyQbOUbdafvqK8UjN6SZPcIqxmBgvDsGvGSdbmBp/NrFwiao2zslTRQ1sBlwCwa1bniTp+InZdh1qX+QdHTS9D2orGWblmV2Z30VRW0H8qQFcQGLDMjoBx0AIFgPFBDgDrJD5CGiyXHqA6VBGJQoI1kWj9S8dRfcvPnjc2b97iCUfdvpt9FXZdUIgYBN5Hk8YeSq5azOARpx1pv8TNpxvgXUgq7sdSV5KAilAI2a1Fb169fufAEFkGAvKPftI2UQlqDqpgMEFQmBXE9yel4FosgjSBf+hxSCgWOWgcDJ6rTJIENS6Hu2kMPLrOPYRE8Bt9RX4P7FHVtWggXCklqpDi3VV39oZuWzn8ii0eQBmxYaVk0M/w3LAQEFpOsEEC0D3s1qM1bHjZqEYvhMWCzl2/0BpjVUdeniZAVKYZG/OEOkssbWEyCJKPiqg+MevbWpLsN44mZcCtZC3ljeSyGA1AMysbpfZKsdSAbJfKQ8r7ulGNk9SKJKJnjdT1n38IzQeKthAbRTrQ5b9R/sCgmAasRkrQ1mZAdlCXkR9bW2mLWPpVFJkgCKp5+N73YrVizj+oASSaWXMuOHppqz0DZsc5EUDLqemGoIKA4Icuap68Y9o46jEUniCOQ/krWwfcbm5zSYiU0GCQwBQNeuSySSBRd6xxRDFNzvPVAfeqPw1nrRBafIE4oGGvlqGf7O89ITyxhIjHYyYX4JYukKUquPk0UQ2uEgoCsRnL2DpLbBSxCQRxQddXHYfohcJQ2K6FBKMMgbmCs17FYmiJvMq+DrCTG0BrRpxCnCmpAePZ1dy2zn8GiFPQjHlx27JE11/4xzD2YfWlVCiDSncla+A2LZkpUs5njikbvkVWJ9ghFir5Glul94lr0KYYd+9X0goaRoBL1EtPGcDlWrWLxTAkE04qOymP/RNS9hM2JyQdKeMSztxcc+69YpIJ+QNGxz6UXswumc5qthAaRzOQb5WPbOItoWpDF8EOJM3RG9DkEt7HqVXb05SxSwVyCzN9PYXZMU27CdNxJ8ig46jMsopZAyvUSXBd1P2FrrLh6bDe5FlVPf3/t0vlPY9EKZhO/Cg9w+c7uMxdL8dVxLJEsgjTvrPVKFlVLKLjqFUGJe5HljIm4Q82z7/jTCqlaPatYuzTIT/g9XkDUi0kzsd8hb/TQWM56AourJWC/RIGuk/0SMycs18CKde3S+qx+OYtY0Es8NGjbdZRaI8GL6zCZ6JC+UV9jcbUF31GfxxJc1H2F7RF9EzGv0Zy9rWDslSxiQS+wYYU6eSRn1xEkE6UQTVYMb2eRtYWSo16LtN+5yGfAd6IUf9Tv4kr0UVhgcNGGjX4Li1nQTQxl1Rs3evYWWXloTsRacFJ21c0cUISlVYydO/D4glEPz3bRWzw3Bg/9e5i4b/zv4k70VaxYoBZG3lEXsqgF3QBpW0Mm2a40ZzK2Qt4PUh+dQYFT3+h/nk13AsFOfB/9vLRo9JeSWFYPfRbWUGDNOfrvWdSCmYD8sxx1+L0wyUQpTE1YU0VH3cai6whlz7apE+/D0lvUd3STjcxBcn0+NbZ63kH0GSo3R/5t3Im+iyphQZWsrP5HFregEwwbdTophH3IyBOlMD059vJfLL6OQSbvb5DNF/Ud3SLeJyyFsmNfj+8kS8VgRo362yQRygHtpvZeGghb0B7yg8olhUBKQSyFVsk1G69iEXYM37Xe0ctkJ7xPKJ6yq+9uZGfCjUhLOjv2pOw8ffFYwegPBQIXtIYhR60Y9ew9Yim0x2AJ19ifZjF2jI2Diw4nl2QUZy9Efc9MCXeB3MMdwyaj+SsfR5/fkdRzPKII5RC+L+vvWAaCqUCWwmuw111iCu0THa1g1CdYlDMC3ecLvQpC4r7kJn6Av2peeYV+Nk7AStpy5XTEChL2V5Csz2NRCKIwlD1+gKyETZg5RCm0T56BuuK7Fo16Kdy4bqebh7ELdRsOuOGvCr4LSiFtqe3o42h3uARvncniEIzHBi/zQjIxi1jvFaXQGQOLwdGrWaQzRiGrf4/3EfVdnRADH0p/OBseideA79qDWKZMY6EY9HW4bHCdhxz7FBaJABj2rD+ruvpemFVJVQpoF/IwEHnv1U7Q0GLQXfNZuxmERHvR9rxR3+PbPwbfUW9Lw4pEMzb6Bqzl9YPWYhZLujG2ZMkhZUffHCzhTBBYUoiZsOraezGbk9n876QE6xjE3Z4hg3sa610s2hljaJn9jCAI2QXfH3kRyEepRBx4U3bUhXj2qOvSQvR9uFk11x4eWrngz1k06QXNcFdjD3uUsJJEDuS9H21G9WrqAF9BBWf4mN1SiEF5fLP/oNpugBTDF7sRhIRFUDDqu3zbA0AWw0VpVwwg+gHkUHH0revPOfpQFk/6QGblxch8S0MNAASYChOyEjFT4vNuRONhffB3rODbdwWkxE7CChFZdZHf2wpxbZjOrk7m2x4AUhgfEMUQEsoBE6Vv1HUsnnRhyFgr0ZGRCRYloKQxHPxqe91bdCSLIABZTBcEJcFmqByhXMO8j+jBNxNQJ719C72rqO9thVuhsIy6lW83CQVyf0Qx7GcjVbyQVf/AIkoHCivtBfWcvSlNuQp42cEybMQhqTTL/9tMi85whee9tR4c4U7K5sKZuBMY9IUpth0Xs/qswA2KuDatxISJiRMTKIsp2UBF4opj35nkFYhmDAfI5ODgzUuWHEKK43YEnzqVSbD5yKhNJZN5Ft+2a6ia459L7sC2TlyeIHBp9MhUOz7zWfvUuaoD0a9EP8DEWXPtTUNZ9SIWVXJBM8c1gQ81QRBpYKAYHPsyFsUBGMraA4jad+paBdaXUQ/f02ZJt1ZBls4NnSwp7gj95S/zbSJRcBeeAIsnbQlO0xFjJHAzHXtNu6X6YoWhrH4nTNK0FhyFYqBB8gUWxyTkjf5cp8u2W04Lchh+zbfqOsjfXd7ujktYAEHCWoT7NB6wcmjC2NyNIGzSiL6AiRQp6iyuZGF40LaxcaYba+JxZagY9H+ySCahkrOeQ7Pm5k5qEvBs/k2+VdexfsnRh/qOysMymfjdzRjGkFR+uqU31GIoOPq+2a4cFRfCkoLlMNTiAUKxASoQl4y6M+21GjF4p1IMQN6oT+/qYPtxcHivqz/Gt+kJECRtJwgZuk5WS9vAybq4UQKQzRnEGzy9sTS44AUssviDzMR/TWtcYTwDi8FRn2exRKLoLDy64uod7cYaMKhIqXQ1uWkiyo2chhZcQbgRcD1azavwXXUxlFvUvYT7k5/o3zezyOKNIfIvsezCy2mpZvBiW9gWjeSWdgJ9GKjYiFPu8RkGgclv1L2t1E0I94OojUir5sunRMlZ9Fq4ErIyMTWxrD08qC5iscUTWKKqOHoIiiHt1gIIxYBsRxZPUxQc+xTIrNVBgqAd6hmgrgHfomcoueojrbgToduobuLLpgX6CinE0U7iK2ki5DPi6V1kHU7acxIbUGf9UlDsM6KBaWPDtC4bbVg8TTG2eskhJLuHWg3GBTO4UXfy5T1FYdBaDEU0nTvBbkGwN6RVlORg3WmJsRTkABn1B1hwLLr4gGaLv8Ae+1b80TQQckDcoNDimQ/UAS5vNdDHQc1v8aU9BQqsUKe8ayp3Am3lhKuX8mUtgfrMjDIs00RMuPms9UEWXTywzzvpsJJR68SF2M/A5yZTeejM1nxuGiQnb0TcIOJeE4kiqtiIxJf2HKSELp1qAAcFfNs8hh+gvnI8KZW9Eo+anuhPxO2FbOY4Fl//o5BVl4kLcSChJOnn71hE0wIZjOROTHvILFyUIGg3qF7Dl/YcRVe/JAh2NrEGg2VHo7/Pf94WSKHcmsRDZ7pNjC1YigVH/ZhF19/IuzpTd+09adk12Soxq+eN+g8WU0ugQf9VXqJqSvj7NIM/4i8/7gi+rOfgo+zWNVNaQU5Fhycu0fXvn+mGsrQQk0K4BG73f71I6jC3BMGRCY1IO4NZ1NVnsZhaQtG1zplu2TJIUzbqF3zJrKGZ0kJnRfwBKyv8p23hYWfh0WSJ7EAF5Yn3Fk7mJlLOJPNi/c3zn8Yi7D/4rnUGOjI6R1Qj0kr4zCST3ZU2d8kVPHtB2dF7pvK5A1/fqI/zJbOGomOfG6W0QgtGbUV6N/9p2yDz+HvTKURhSEzASB5ExiyLr79AHeEpJVflJd99MjGD0mDBcuJjJdNbAbZjk5vwp2YyhQIOArxZ9Ua+ZNaAFQcEwCbGGXi14g7+s45A178JlpBMMK0R1lXN07uLKy2LRdg/KGT1P0JzRT142olZnRRDRxqdZoSmewiwIY1mivpcmJHIaKQ2TUpICmd69XX+s44wlssdTC7p/VMtiQr3E1bDjtNhNXQW8O0Zhr1FR1ZcvTnNOyebsTGrlzv0ucmsvqRZCXc2t2d8iG2noGe7jVdbHiPiDiXHnnHKLlkk50lOQ+uE5YZ3UXLUa1mEcw/S7l+Q5cloYk2/YHTJXz7wJBZXWygYa2Wzw1jC4J91Lv/prIMG73XjrRk8I56VZq5l/Ccdo3RW5sl0z+J0y7XC/QzS0E3rS+I9RTWbOa7u6V01WZ6MZLicpL/K4mobxaxaSANuUtIP/Er6fAdK0fOfzjp8V39s/KwePKPRe/3l3ak7Wciqv5Wly9YJxRxYkVnlsAjnDvms/hZMXbEWJhMvausqWAydF/Qcy1lPIV++PPHkad6k9H/8Z3MC+v4DTpDiKtXFTq2jiUBAm+7rY0mu8R3CqQl3gizUexG4ZjHOPsivydQ9e5+ksEYzSA12VAUdnEXWEchkXzMxEBf48lNUXp4NkNn6BjwXFCCeKYg3GN20THwngKsksYb2iDqbeUedzSKcfRSMuj4qyUUYEtmORWfqQqitgBTDd8f78sFKgNGbcOYn/8mcYNhkNJRCY2KA9UCWY1fLy2GFgpTrXd08XDfpDK0Gdf+cWA3Dgwts6qCy4aUJMWCCF9SFE4xJuXxmvAIOlz+nLhE3G0D9B1IEjxVxDVOh7Y/yr7uGorGWBnkNTfZmCCcziG0Z/WYW4eyB/JhrxMRrTkTTSUYbulH2m2bMi0LrI1yWwr1xdBz/es6AIq9kuQzBZcKzBVZNj8rLFbLqf9kiOUDOwmji5LCCY92BbfIswt4DBSnJUmi7LmGayIVK/oVFNiNgsDVcCQQd81n9K/7VnIOe6Y+IM2B7eLC0mNVL+FddRbA5bwbnbqSNYeC7O0vHLYO09hWyjNScmNVHgzhAe4VKmqHo2qduJh8bpjQURMHYfXNsGVkMP0IHhEtJpuveXtYHyBvrS4EbFSFz4WSGk4j6OYuvt0DAq+SoUclybE7EFmiQ/JFFNmMUsvrl8ONDpaDWzKp5OA3IzfkaTPwwNVrVWi3+2gmQs1F19dbwu6JlL9zPhttZ8qwTWYS9g2/UeyS2MDVhTSE5h0U2Y5TchQqmYRCAJOuBP+4LUH/4FJ4LG71waMzqeb2tQ0hWwycly7Z14t0UZrh3ZVqEu/3Ug7K5pTnhA+NciG4eDIKzJrBcR5bDT/mjvgFZj3+LwCjcCRqsPX8+FKSpOHp0YsKXMJrISC47enthUD2PRdh9VEwmXDaKeABhyNDc1z9kkXUFUAz0cjfhmD/+qG9Qcqy/QpuDDEijr+WPewpyXz4qVkPrDOOB9iUsvu6DfEgpoDENA/m0WalpOpQd+xiyFt7K/+0rlIxehpgKBwWv4I97irXe/GdCUUqsoTUGbp5R61CSj0XYPQRLlI69U0puNScH4Ea7HYDr5/MDSm7mZQhEB3EVciv4456jkFWyMtYGsUJRyqrlLL7uwTfq4k4OW00TEeghN6vjnZRxRN5ZeCwpw91hQHr28vPhXlVdvb2RdSmcmrBkycW9kcXXHYRnFuqWzixMKxF3QS2Cijv7ZdbmEoXs8f+PfP6NoQs1uysm1CevDVZqJrwL4WRCgZYcta1qjn8ui2/mGMpar+RqtJFfKgzXi2mA5JEmzGJLBdYMDDyerMmHEYCEW8EfzwoKg+oVkDvW66PeifBAIhvXN/rdLL6Zgzr8ZznFV9iEgRth9OdYZKkCuRDBtnDf6U6BlnaQz6rbsS8g6p0ID2SwpGz0r1l0M8Owd9RhNCMUGhtlhJMJSyqoS+DO3mlQ/YSi0T9EUHpo5YI/549mDZgBJeGuNSJtveLqPV1R4Njy2qzmoDAkzNkCmdM4Vo7FliqQYria/P199aWzX60aPjP1zUclCNkag2Vloy5m8XUOutkXxY2YmhB2wVH/xiJLHUqu/hgphi3d2GLeCaij/w9iHFHvRnggkUFLFsPvWXSdYeycJYcioCZuRHM+5kb0U9nuWYbv2u8oUj/h/846SCm9RRLvWiO5EjN3J/LGel3Y6aO/RPjYke+F9UvStRoxHjR5/AUphtv4v7MO7AOgPrpdku9aI3sA72fxtQ/q8J+SwM7UxEzlG30NiyyVKHqWRYrhe/zfOQGi7YiFRb0j4YEMKox3uiEPe/7Jb75bkpqmZrB+b9TpLLZUAjU6ikZ/kv87J6B38U8SC2uNYaBWbevo4GEcdEK+yF74JFE3F3I2mVGP1r1jj2SxpRJjuXkHF43tjY3NXQEZHOyLzVzi9rbGYBewo1ax+FoHXfQ3km46NYMIr1G/YZGlGmu9xc+cy81eRfp+rIzIsmVr5OLCV7H4Wofv6Bsl0js1Q9NVXcYiE8wxcDAPrIaodyU8kNiKTZPaA9eTtcfimx7D3kmHFRxdlGXK5oTJyqm4b2KxCeYYZDF8Sazc1ogQQdnV+xA4ZvFNj6KrX4LaArI5pTkbAZyu7lYTzAhlR12I49mi3pdwMuERlBz1Nhbf9PCzJGDRvFOSTdauVYIWzBzIp5C8m9YZLLW3Uz+EBPxtSTGdmpy/MOfHxAn2A2da0DuRYxNbJOIMRaPubynOMBZUgtYPBacKRdxMGBIWlW/s97DYBH2A9YOLDqeOXpMzT1ojKpqTK7ELNUVZhM1RDUp16T2Sv9CcMFVhspJAZ3xgraB7QFIeTWr3BDPhhHcmnEz04yAL0mjDImyOkrFz+OOoGwlDQtOSu7W7klUvYrEJ+gT0fn6KgiQT35kwmuGWB3v6JfeisT+xU+ILUzI47MTogr984EksNkGfgFyJ6yQ+1joDI8Bt4RwU36ibxGKYmsGKhFFrWGSCPoLv6CtlRa11BrVKjd4wZS0NVCAqOuphCTxOTfbLfsBiE/QRSkZfKoqhdQYrOEbvmfKU8pKXeSEphl3woaNuIgzJHa/9PHNBz0GK4e9EMbTORgZvYarDaAqOfYokiEzPoOPN8TZjQTQKxnqXKIb2iA1VBaM+wCKcjJJri1BbIGREvuwHWWyCPgLO+JTNf+0x7M/qKyzCySCt8e+iGKYnNCzy8llsgj5CIWudI6sS7ZErX/2CRTgZRUf9t6xITE82vc5jsQn6CL7Rb5Y+3B6DxQajmx9/QOaElHJrgbCqUMiGxSboI/hZ6wwoBomTtc7GTuG6t2hyJTIk69AfSZ55C4TFQDPTBSw6QR+BOvjZ4kq0R5RXQJmFolEvZTHuB44X843aI0uV0xMWA5bFWHSCPgLqC0jwsT0GS5bIzXF0lsW4H3lXZ5DqK8VZpmfgShhLliv7EPR+3icB9PYZTnb2u1iM+1F27ddL0KY1QohkXX2ZRSfoI5CL9zFRDO0zmOyyEfVLfdc6Q0yw1hikRDv6f1l0gj6C76gvi2Jon+Fkp69mMe4H+cwXiEBbI1ZuqAPexaIT9BGKxvqhbLtun8FkF7X/p2jUx0UxtEZEcMmVGMUJTCw+QR9g9ep5B1HnvlcKtbTPsOJ5xBkp9MurJMbQGhGgDYq1GPvFLD5BH+Ahk3lWwejNcuhM+wzOmXD0vaiCxeIMQR/eKIeCts7giK+sdQ6LT9AHKLmZlyEPpxzxvoRTMzy1XW/AmTIszhDkM98iWY+tE+cXlBzrShafoA9QdPU7+eg1YZsME5x0bZJ7TL+8Q06eap3huRJSxamf4Bt1taysdUa4X2QcbJ10gBK5Eg8FWiPiIuFkhqW39Y7CKvU8FqFgDoEDdUkxPLBJJreOGGQ8G72zNLjgBSzSECTUsqRDt8cgJz+rz2IRCuYQxaxaWHZw2Ez0uxJOTZR4843eSwbC8SzSEPTBZkmHbo/BaVSOup5FKJhDlIx+tyy3d04oBuyZyBu1iEUagiyG7SVRDG2RAzYjo7mBp7MYBXOEgqN+LMvtnROWVmg1TFiCLxq1S/awt09YDWXXOoPFKJgDoI4A9d3tVYmRdcxGbs6krdfkSuyLukA4NTFL5Y3+EYtRMAcgpXC+HJI0M0IxYGUCuSAs1hDkSuyNukA4NWF+VV29p+DZC1iUgllGwag1W1bJasRM+JhiyFonslhD0C93iCvRGXcGFZ3Up1mUgllEIatfjiVKCZzPjJBfcPhMzh5g0YZAzTcRbmcMCtw4anSTbKqadZAL/E1ZjZg5oRQw/gtu5gQWbQhE1wONEXGRcHruOmMxrIaLWZyCWQBOG6+59k7Jv5k5G2O/ZDKaxRuCPhyWXWmdE+nkZUdX1w8uOpxFKugxCkZ9EW5c1PuYbcbdDQ+Vq9o9vMKaz+INQSbZfXGuEE3PP4blKiwfgtgQFgRTJvxdr4jvh9WQd9RHWaSCHmLYs+YH1sIc9Fn0KfQt9LFGfwtrdET/fRzIctxeGJyQ4k+N+l2cT7kONzXpb+IgmJLR19DL+yNxC17eThqwSF9GkKqX7hI6R9XV2/zl1vNZrIIeIW/UdUE5soj30E02ovUNJYDvRO0C6lubiXeUXP0NciHfQ674h0Zz9j4ojaj79DtDxaY2kSvxLBZxCGrQTTy4YkmU8yo46hZuTgAkvtQd+5SKoz9IA/bbZOo/QO3cjdwDKAtcA4F0K+iKTgrTFp2WH0HQA/iOOrkXKxG4H/oDxgEUAEiDHUk/m8qOvYZ+fzX1owtqrnrNxF2IJVd9BH0q6r5xIALo9NOvrVzwVG5SCPIvvh7nWnkNzV4YtBZzkyZhLJc7+BFn8bF1J+PSC/5kxdU/Q1wALx+dADMCZgP4W51qfjzH1lWZsXzWPpW/VtBFYBclDdTbIeOZWAt4T3Cdkf/QePdQCvTea9QnbqWfV1U8+7yiY7+6vEI/m78+EmO5eQfTbLs2zjs7+Zi6tWNLlhzCzQpBiuEzcT/BBz4+Na6t8x6GzrSfMeLpl9cdfT51lmvIuriHfu6AkuzUqoDZSZ1r/f0Tta9gxhgeVBcF7zlC7s0I9xHKH+8SSgD9HD51yagqKYBf0iRxJf3/7WRhnriJ+gN/VcsouOoVGFj0ziO/Pw5En6Wxczs3aT9I410c9+o3eDkFo4fWLp3/RG5WR9joZV5YN9ocaFWEM0sjVjGVVdEIRNKzfIlvKegChtyFimb5HVOtnkGBQ5GjTCGqbG2j94XPiHl6jz8lxX9F0bXPqeXsgaFl7SuBKNCk+tm4p2RDaVK//Sk3aT9IMbwdHT/qojgxKIOdtQe5WV0BZpEK+bVVx76QFMW3SCE8UHLUrvFWBWak8bUA0BnxLAVj5/g2ghkAJi7JfA0GesOFgGKGgob71wgMBsvGrq7R72+mn/9cduwzSZnYpbMyT+ZbdRWVnPUU31EV9tFjS0x4pAMmx8YKxloJ4UZdFCeigQVH9fQwmOvJp6x41vy6m3Go411WcvVPSq7KQxng+2F5QVng33VPb807C4/lSwUdomDUv+978wnBwIfChTUAGZNy2EkK+V6yBK4ld+A9I86ik2czA7Vo1F8mYdxAqZLC/Sw3az+Qc45obDPzOC7ErF1z9R5U9OGmzQrGlg88CTMTmblnwlytuOrHJMthKAf6/5AsYXYGlDMvGuu9Y2edAB9+T9FV68qu+p+KY3+05uhsZZV6EQKS/OezDlJYt26Ffx7RF+PEQDFEZe4ivbSRLx11YZwI856035xXcIb5WiK/eGNOv9XPWa/kjwVtAJmkZAFestGzPVheYznrCfyrOcdjy6YRfTBuxARWdDJnc9P2A2WjSfttmyqwExfystOW6ZaZBIKZgBTWd5LgRsBLgIIrmczruGn7gTV+UgxDG2MeRGkwSE821se4eQJBV1H0LAsuaxI2HnIb9jZ1v4tG/yopp1EheQVbof3lxx3BzRMIugaaRL+GJcrGCkmcCQubxn6tae1SZD8mwTRqkHMJ2kp4EgimA2ZWGky7k7LdG8lNvlF3cvMmg3754Tjne08kNGHV1duKzsKjuYkCwYxRyKpvY7k0CdYCiNwQ+vlf3LzJIPPodP6jRBAvDooOZh83USCYEfLGPgkZtuOT2eLOION5KssaNeWRQ56EJcsGEVgJUqVd9QpupkDQMWiS+fmjCYnDNYjwQcGx/oqbOBlYsvQdtTEIRkTcII6E1YBMuaKj1kw6+18gaAO+a52BQRT3JMDxhBGAQD0SHLmZ0SCNuCbOdRmaES5F3ugLuJkCQVvAnghSCHnsy4jqX3EljICC0Y9sXj4w9epdMaFHiUMrkhA2+zlJTRa0j7yjL8cqV1ICjg2GRoC6jZvZHORKXJiEXZYTiRfK+eA3cVMFgpYw5OqXjHr2Hq6LmCjCCPCNvoab2hy+u/BVQdGJBAUgG4RvGJRey9rncnMFgimB6kzUb24PtvNP6E9J4I7TceyBfjc3tzmSGIAcT+ybr7v2lqGsehE3WSBoiryxLt11ZnJye8YTkz/qiEwbeGyALvp1Us8ChNYPIstG/0pWKQRTYYOjTh7x7H1JyXCcSMTdyFoYGc0dE50KPRE0eK7ol4M8esXdwSqF+jA3WSA4AGuXzn9axVXrMEEm0YUAUeimaPTPuMnTg7SICS6KuFlSiFkAsRQyFSdvNRWkHgWjrk3iKsR4hocxW5dyk6dH3thH0YU7kmpCgXjhWKqputp/aOIhG4JUw89a52MFq5TAAHyDCMSj/5NV9EZudmtApmASE53GE8oBm2FISD/iZgtSjqFB+1VYmkxq8L1BtM83ahMWG7jprYEu+lTS4wwNIt4wbNTHuemClGLdcuv5NdcuY0JMsgsBIlTgO+r/uOmto2ispQi8wOSIunGSiI1WaOuw0YabL0gZ/OUDT6o49pog4SeijySNQV3UqOKv02Hj4KLDSaOMJt2kAtERUNJuxLM3b1hpWSwCQYpQcu3vJj3Y2GCwcYr6eylrncjNbw++0d8Pq8dGf0GSiA6B7DayHu7HUhWLQJACUD//HNzJqH6RRGI1jqyFdWPnDjyeRdAeikb/ddyPrWuHUA6Iq5Qd/QMWgSDhKCGzEe88wSsQExkcp2f0F1kE7aM0uOgFZcfemeRlyyiGm8jUVwpZtbzkqBU4pUuYLOaNXlY09icQhEtSNabpiJhhcIIX9W0e5p2hYNQvkp7sFEVEphvcIkwcg/dK/TpNlgKI2AKN6eqMT2IvuvZ7k1Qgth1CuwqTy6h3nnSyNfx1Ht6dY3iFNZ+06u4kHKwhFKaZUIYIsJcdneXhPTP4Rt2SRndCKEwScVK476gyytTx0J4Ziq5+Z1qyIIXCpJLH8FU8rGeO9TnrOeSXbE3CgbdCYRoJNwInTpVc9Roe1t0BmSDfTmKRWKEwDYRSKBh1Pw6v5iHdHZSMXhasf0Z8qVAo7G8G57g6+h95OHcPYznrCb5RDyetrr5QmHQGp8s5eteQYx/Dw7m7gMaB5on68qQRy7OIqQiTy7Rk9IY7RlXzQ2tnChzWQgNmRxLr649n4C4ZvZMspK0kUGESSe+W3vX2ie8+aURfDlINXPtUHsa9AQn0uqRvrAqSQIz+UN1bdCTK3AmTyaKTcUcSeoZKg42g481LlhzCQ7g3qLjqFYgzJFmYQdpoVr+TmyxIKEpu5mVI+klyXw4Kvjr6fG5yb1HIqt+GJ0hHP0zcyedOTH86jyDWKDr2q5OsGIJiLI6uj+YGWjs3YqYoGttDAZekLl2KYkgHkq4YgiXKrLqMm9t7wF+B34Ktq1EPFHeKYkgHkqwYsOpScfU2xMm4ubMDEuq5Sd2OLYohHUiqYkAlssBaMKrzKk2dYuycow/1jd6wiQQb9XBxpiiGdCCpigHpBFVX76o6C4/lps4uSCOdl0SrQRRDOpBExRDWLQ3OZb2amzn7GPaOOiywGhIWaxDFkA4kUTGEGZ16V36urIUGfKPenrRaDaIY0oGkKYZxsYUvcBPnDmNLlhxSTNgKhSiGdCBpigGHQ5G1sK0wqJ7HTZxbIK8hGEwRDxtHimJIB5KkGGAt4NCcgjOLeQutIG/0r5H0hAeMevA4URRDOpAkxYDTpagdFRwtyc3rD1QcdTI2bCTh8A5RDOlAkhQDYgt+1pqdPRHtomD0tbxpI/Lh40JRDOlAUhQDDs7xHXU34n3ctP4CtrJWHXvLSMzrNYhiSAeSoBjw7DhZq+zar+dm9SdIc10U95ODRTGkA3FXDI1kpoJR13OT+hdrBgYeTw98N6rGxNWlEMWQDsRdMWBbddXVj/TN8uR08F37VciGjGsgUhRDOhB3xRAEHOPWT5F9BZcijlaDKIZ0IK6KAWMqSA0w+taxefMex82JB1A1hgQ+jCXMqMb1M6EYisY+j5siSChQpjCOigH7IUY8e1fe1RluSryQ50Nq4iZ4aGP6+b59S+c/cf05Rx8qTB7xbsuOfUocFQMs8WFjfYiHWTxRcPRVgS8U0cB+ZdBRjB7BATu+o9YLE8mHyRQvxSmNP3AhwqD+78dy87p71NxsA0dul1y9bssqHMEd3eB+I54T5hrSTDGjCJNHvFtsOop6//1KPC+5ENs3rLQsHl7xxrBjvxovIukH1QiFvSIsG+QsDCctKJ436iNxT3wSCueCsGChFOhn746ZmytgWYV89p/jMJe4uBRC4VwTYwW1Tqqu9v3lA0fwcEoW/jSonldzdRVLmKIchMLpybGuffmV6rU8jJKJYWMthWJIy0nDQmGnRFwBK3p5Y/0dD59kA2uwaHBST7ISCmdKWNScOXwjD5t0wHf1DXHLb+gmkSsBq0nYnBVilOySTowJ5CtUHH3v/SsXPJWHTDqA/AZq+D2csBEpoCTTN3qv76jd9HOPcDKLLJso2SWZGAs4xKnu2ZvXZ9VCHi7pwrrs8cfVXXskbcHIYEu6URfjpKCCZy8QRjCbOY6UgwurIW4pyzMhgo3Ymbwhq5bzMEknNhjrdaOevQdVn9KiHMIlW/U2FoGgCXxjvxj9Ii2KoUxKcMcZi8byRl/AIkg3ho1+yzaaReFXRgksaYRiKBgd700wswBswtty2qJUBKnRRg42XsHNFwCFrPoHBCPTMDtgWzf5z3N/WlCfo2j0Xwdb4CNkmDQGWcFGf4ubLhgP0pZX7j4z+cuYiDFQJ/gZN1vQBJg9k3b84UTCfUYby46++Z6c9QRuumAiSkZ/A8ohSohJIWr1kStRKr0h82RutiACZFX9LFCiETJMAqEU4FbWXHvNutzA07nZgihcn8sdTNrzB0lWDnCX6qQcSp51IjdbMAHrBxcdTophJG5bo1sllALcpKqrH1j/Jus53GzBVFi7dP4TK476MWIOUUJNAoODeYy6mJssmICisZbivIQkupVQCsjfqXt6XdFZeDQ3WdAKhr2jDiNt+rOkKofNqzI4D+AP3FzBBJCMroKZPVFucWegFKhdZAltGHLsY7i5gnZwT856StW1f5pE5RC4E569r+AuPIGbK2DU33zi00hGtbifaDaR45TCeiT3cXMFnWDYO+mwqqd/lMQiL2HxDfV5bqqA4WetdyTNWmjEFEgpPLQ2q17ETRXMBDcvOfrQiqu/D+WQJJ8T6a/kLm0d9hYdyU1NPcZWzzuIBtF9cTx2oBmhFJDRSErhnoclptBdrKYOQ8rhG1AOSUmCQoeB1ZA3+nPczNSjYKy3JM1agCtcc+3fPWQyz+JmCrqNsqOvxGBC+jQGVtSLiBPRDppJdpcHbZubmFogtkDvt4BNRFGyihsbac41T/9kzSnHSJ5Cr1F27EuwtyIJG6/w/Hzc2K+5ealFPquvxOyaBIWPXaFQChXH/joOeuYmCnoN7E7ErsykbNnGgMinOK8h7y48FUVP416cBX2RLMAg0Fg2+pPcPMFsgmbZN5DVUA9m3AkvKG7EmRsbvcze/KB6DTcvNRheduyRZG5X4ELE+T3i2TFRjeYy+4qO+htunmAu8GBWLay7+q645zo0OlWdBsjQsvQkvqzHipOjbw12nE6QSZyIZ8cERVZsLZ+1T+XmCeYSCOzUXP1t+HRxDkoGnWtVsKnm3uLSxc/k5iUWOGuEXIfvxj2u0AgyklK/7eGV9gJunqBfUHLVRzDromZenJVDuONO35bk5a3V8+YdRJbCN+Ns6eFdIRclXCXT37hDdsv2L/ysPTiasytxXgsfpxzu3rAi80JuWmKwZvnAkyqe/h6UQlwT1vCOcFDziGfvKbv2e7lpgn7Gg+Sj171wj0VcXQs8M3zWEVcXhgYXvoqbFnusH1zwAno3v4mzpQBlhucnpfAgDmzmpgnigopnfxRuBZbB4qoc8OzUAXeVEnDKMbXpTdSWYlwDjXhmskbJmls8VnP0tXcts5/BTRPEDbykuRYaPo6p1OiMWBdn1+KGdcut53PTYgO4DtSGy7EcGeclyWATVM7eRK7DO7hpgjjjj4OLDq849peRLRnXhCiYr5ip6q5drbmZd3LT+h5VVy0npXA3FDOSl+Im+4ZiDl0H/RNZdUggKq5y6CVvCDtp+NKjOkO/Es8bmrJIB9e/rXn2Sm5a36Fo1EtJ1t9FQZq4unJQxrASSNZby45+HzdNkEQ8sPy4I+qe/iIsB0SVozpEHIgiqXj+mmvfQu0xY0uWHMJNnFNUXftVpBCuwzJekBYcU/dtYy4TKGBqyw+HVixU3DxB0uG76o300u+A9UA/YzujQUGAVU/fU8vpD1azmVmvDLQ1Zz2HFMI7ap7+xSgNKCiEuLoNeO7QbbD9sme/nZsoSBNuWjr/iVXHvoQ6wSNIUolrnQcoCAT1gjY49k5SEv8H07fqLjyhV5bEplXqRVVXv5Xcs++QWzYKZbCFFFScZRgsD9MkQRPFf6wnZcdNFaQVwyus+WSOXwv3AgHKqI4TFyJvAxbEjiCOEpz7+CAK3EBRlI1+w7Bnza+1cbT6Pu+kw/yc9Xw/a72SlM65FUd/ke51Ow2knRhIICyuqGeJC/HegxUHcssqjjqZmy4QhKCOfwopiF+gkyBgFtWJ4kTM3vCV0R74yxgARUftot8VfaPuJNP5p77RN9DPr9JnVxWI9PnVxOuKRv+I/nYN/Rwibm+4CI37QAGN/664EW4DArnsSq4lhXA2dwOBIBo1T51NCuIemOYYWFEdK46EuYwBjZOwMLhhWWDGbwx4EP/GZ/gdlCMUAraEx9VFmEgoBFg4HEco1xz9QVQj51cvEEwNxB8qnj6fFMT6pCmItLKhEKqu3kT//oScACXoGGuXzn8azZjvqbn6YSiI0ByP7njC/iQsJCiEmqc3kqK/HDETfr0Cwcxw/8oFT6159nmolQBzGxH4UkLM66SysVJD76xMSuGfCoPqefw6BYLuAkeV17zM2dTZftOIZsc9EJckIhbSiJ3UXf0AKYT3+8uPO4Jfn0DQe2AVg/zVG0gx7GjEIRDgi+qwwt4S8QMET+E20L9vHvEyp+NwZH5VAsHsA9mG2OJNVsSfkAeB2QopwVEdWNg9Ik8jyNkIrDZdq7v25+vGPolfi0DQH8A5m3VPGzJfb6i4ehusCMQi0IGjOrawfcJVgAsH2ZJc91XJOqjl7HNLcsqTIA7YuGrRC+pe5t01V/+cOvM+URKdc7wyQFISWQd3wUIbPU0tYnELBPHDiLtIkWtxUcXRvyDuwgGn2xAcI3dDYhLRRFIVFCmUAdwy4p302WVIWUZ1aRatQJAMUAdfUPHUeTTr/VfZ0SONzo8swzSvbsCSaqRvI0ZDCnM7FGnVsf+BrK6XiDIQpAbwi1HhiGbCyyuO/QdSFDsQvEQwDYoiqRZFIzW7sdwLwl2g9j9In3+FeMaoHBcvEITY6GVeWHL1aTR4Pltx9W/p5yYk6cD1wODBQIKywCAaP9D6mVACcAXQDlgCYawlAyXwKFkDdwaKwLPfTm3K9EuxGYGgr1E+XT+77Nqvp0H0vpLR19Agu63kqFEMtMCyoEEGhYGBhs1O+BxKYzatDHwXvhMWQGNzFhRA49nCPSZqG/3dfdSOG6ueXk1cNuqcIBaBQNAtbD5j4Igi+dwwt32jL6UBdy0NzF/6jh7GAMQAhRuCQRnsmKQBioHa2C2JgYoBDCUCv76hSBrKpDHQ8Tv8DQqX4Bpc28goDO5LxHfgM1gxdO0OutYn3k7PcmPV1Z9ENWXftV+VN/ZRY6vnHcRNEAgEs4WbyQz3lw8cUfGs+Yjcl5zMCt9Rb/ONupgUxmeIX6cB+780gG+ln/eRUhkuGj1CP7fQZ9vp7/YUQRrgdN1W4kb6f4Gue4C4hv79E/qb62jgX1ky6sP08/yKsb1iVi+pOfr48gr97LGc9QR+HEEiMG/e/wfpxs0lMfjUfQAAAABJRU5ErkJggg==;" vertex="1" parent="1">
          <mxGeometry x="362" y="340" width="60.45" height="60" as="geometry" />
        </mxCell>
        <mxCell id="LWeS2vQ3Frpwj3SJLR0B-8" value="9443:9443" style="shape=image;verticalLabelPosition=bottom;labelBackgroundColor=default;verticalAlign=top;aspect=fixed;imageAspect=0;image=data:image/png,iVBORw0KGgoAAAANSUhEUgAAAWYAAAGsCAYAAADuVQ3EAAAAAXNSR0IArs4c6QAAAARnQU1BAACxjwv8YQUAAAAJcEhZcwAAFxEAABcRAcom8z8AAFTpSURBVHhe7Z0HmBzFtUYJBmMbG2wDxgYnMA8bjHPGOMIzBuecjY0TzuH5GeeM43POxsZIoCwhgQLKQkiAEAiQhEAEIYQQknZ3ZmfDbN776tRswTD0SNMzPbu9M//5dL/Z1fZUd1dX/X2r6lbVPiaEECJVSJiFECJlSJiFECJlSJiFECJlSJiFECJlSJiFECJlSJiFECJlSJiFECJlSJiFECJlSJiFECJlSJiFECJlSJiFECJlSJiFECJlSJiFECJlSJiFECJlSJiFECJlSJiFECJlSJiFECJlSJiFECJlSJiFECJlSJiFECJlSJiFECJlSJiFECJlSJiFECJlSJiFECJlSJiFECJlSJiFECJlSJiFECJlSJiFECJlSJiFECJlSJiFECJlSJiFECJlSJiFECJlSJhFU7K2dcCmbOmzmVsfajNGbOG9fXZffmjkG0KMHhJm0ZR88qpO2+ffLfaoi1sfYo909vCLWu05l2bscifOQow2EmbRlHx8tRPm81vswImtD7EDnO03odVOmJ2xBdslzGL0kTCLpkQes0gzEmbRlEiYRZqRMIumRMIs0oyEWTQlEmaRZiTMoimRMIs0I2EWTYmEWaQZCbNoSiTMIs1ImEVTImEWaUbCLJqST1UgzM+VMIsxQsIsmpJKPebFOyTMYvSRMIum45bcoJ25JGf7/Ke8MB/khPnpszJ2yd0SZjH6SJhF07AjP2i/2pi3V13ebo+f0ubFN0qYMcT54Emt9pqF7Tbhzl7rGhgeSUWI+iNhFg1Prn/YLrijx962LGdPnNZm+1zY4hcqOrhEjEsN4X74RS127Kw2+9jqTpu3vd+0CKgYDSTMomHpHRy22dv67GwnqsfNynhB3tcZ3nCUEEfZI5w40+WxvxPy51/Wbl+/vtuu3NU/cgYh6oOEWTQcQ8NmK+7rt3OdiD7n0qwX1v0mxBPkYsOzDgKNp/2ay9t9l8iNmcGRMwqRLBJm0VDc5MTyd5vy9vL57X5N5f1rEOQoQ6Dxuh/hfn7r8g6bcEevbemUQItkkTCLhuCuziG76M5eO31Jzovn/k6UkxTkUqP/GdF/3JQ2++iqTltwb7/t6lEPtEgGCbMY1+x2YsgkkPdf0WGPndzmBRlhrqcoB+Mc4SXwlBlt9rW1XXZt64B19CuCQ9SGhFmMSzoHhr0IfvaaTjtqesGDxRDKKBGtp4VzHzSxxZ41O2Pnbei22zsGrVc9HKJKJMxiXDHonNHbOobs2+u6nQhm7ZBJ7NHX4mfqRYlmlD3SHZu0R016fs9AlzbdG/Rx/3Vzj7X0DJv8ZxEXCbMYN9yXH7Jf35y3VzjRO9yJH328iGGlIhu6HvBuK/0Ox8fxwkn3YRPcy8LZk2dk7MylHTZla591a4KKiIGEWaQe+mwvuL3H3ry0MEFkvwtbvPhVKq4Yx+JVI+Yvnpu1Z87OOFGPnpKNcfyTprfZYycXvoOYRx1XzhBzQvQIr/uvSzJ+gHDRvf3ynkVFSJhFahkYMpuzrc/OWt1hx8zKeKGLO0EEQxyJQT7WpUFs86rd/faBKzts3wv2vFbGsy/N2LfXddnn13Q6D72QRlyB5ngmtvD5vEuz9vXruuzaloGROxQiGgmzSCVX7Oy3/72+y55/WdYLMuJWrSAfObXNPraqw6bf3WeZvoLP+jkntntbXe557tzLd/bZju4h+8fmHnvLspw9elJBaB/u0o76bjnzAu1eBKR96sJ23yWzqV2jgyIaCbNIFTe0DfhZdadc3u67EBBBJnNEiV05o98ZESR8jvUx/uZE9R4nrsVUuuznwqL1mNdnBuyn67vt1e7a+HtcD5oZhEGgH+ME/t3LO+zCO3rt7i4JtHgwEmaRCu7sGPQidebSnB3khJV+5Lihb0EsEb1XLWi3nzgRvS0XLXq17GDCWhlfurbgzfuXwEhXxd4WRSo2PG6+xyAmi/bP395nLZqgIkaQMIsxZWd+yObd02cfXNlhhxZNEIkSs3KGiNL3zDKdJ83J2JfXdDnPe89eaK1bSw0Pm81zYvrBlZ12zEwGEt01OA8/bgQHAv2wiS32NJfGudd32TUtA9apCSpNj4RZjAksxYkIfWFNpz1pesaJU0GQiTGOErEow0t92IgYImwfWtVhy3f2+0WM9kZSe/6xTvPFW3rsDYvb7fCpbf579G2TRlTaUcb1cy+IO+f81c15u40JKnKgmxYJsxhV+pxq0r3w/Ru77ZmXZJyAFSaHxOmrRcgQMb73BCeGZyzJ2cy7+6w9hqeZlDADk17udZ7/Hzbl7cXzsnaI8/z5PlapQIdz+i4R5/mfsqDdd+209g5X9KIRjYWEWYwa9+WH/cpvL3HixQ4ieJYIbBzxQrho/hMdwey6f97WY/d2D1nc+RtJCnOgxyk0kRbfu6HbjnMvHdIinTjdGxxL1wb3SMw2sdusKd2j8cGmQsIs6g7rWvznjh47fXHOjpre5oWn+gkirXbCnKz9YmPeNuUGvBhWQz2EOZDtG7ardvfbF9Z0eXGlm4YXSpz75XjCBPlkgsrHVnXa8p0DphkqzYGEWdSNweFhm3NPr334ysIEEcQYsYkb/oZIEm3xtJltdu51XbZ6V3/NK7jVU5gDdG9cek+fv/9DJheiMOJ4zxjX4SfVuM8XzmWCSrfd2KYJKo2OhFnUBULKvrq2y4ubn+hRhSj5UDQnyE9wXufHV3f6HatbExoRGw1hDrDS3Pm39dobl+R82txTtXmBwL9+Yc5+7VoMWqC/cZEwi0TBm/vZhm6/E3UQk6pFaFKrnyBCP/K2kgkitTKawhxY5/LmvPWFRZhoPVT1snLHM0GFCJD3XMEElR7b4Txz0VhImEUi4BX+6/Yee8vSnO+qQFh9hEGJsOzJ/KQL9z1+ft3CdjtvQ95urtO05bEQ5sCy+woTVJ57aWG6ud+qKq5Ak1dOoJ/kWhPnXFOYoBKmm4vxj4RZ1ARLcc4Z6Uc91DWzERkEOUpMyhnHByF/wWVZ3wVS74V+xlKYgSiSWdv67AMrO+wZNSzQhEDzPdL47g3ddvXuAS0x2gBImEVVtBN5sKvfz7Ij0oJ+ZIQ1jrDgJYbIAwb2PuTEfYnzJkeDsRbmAIOY59/WY/+9uN0vtsSEmWoiVhBorpkX2+9vydutrqXRrx6OcYuEWcSC8LRbc4P2o5u67Xi/pnFBkOM0xTk2CPkRIxNEpm3tHVVPLy3CHCAWmwE91opmggr5ilUq0BxHftIdRPcRA4RsTsuUd01QGX9ImEVFEC5MJf/jrT1+gggTPIIQxBEPBI/v0O3BBJG/39brB6+qDEeumrQJMzAr8ubsoJ277sETVMjn0mssZ7z0gqCzQNI7l3e4e+i3vLo3xhUSZrFXOlylxvvyze1pzptzlZ9JIpUKMoZgeBF3nyfMzvrIDTzvaieI1EoahTnA1PLVuwf8NdK94V+AzuKuI8KyqfxMDPnZqzt9/7MYH0iYRVnQzMvu6bP3jQxQ4Yn5CSIxBAKRQyT2vbDVnjw943fwWNMy4BcxGkvSLMwBJqiwg8t7VnTYo9010fccJ+8xXoYMDtK9wQSVc9d11S3SRSSHhFlEsmpXv31xJKQLD7maaAtEhGiLw6a2eo+N5T13pmTN4fEgzIHNrmXxr9toseT8y3Ef95KL01rBwiQfdvA+dVG7/ebmHtuecGy4SA4Js3gQG7ID9uObuu3kBVlf+UMYW1RlL2ccz/ceM6nN3r48Zxfc0WNbU7ZLx3gS5sDa1gH72fpuv4Jd2N0lrkD7iS3u2TxpWsZPUJngnk2mV/3PaUPCLDx3dg7a3zcXdqL2+9pdsLs6QXZigaf82oXt9suNeT+YlUbGozADERaLd/T5WO9nzc56kaV7qVqBPmZmm332mi6b61ozrC0t0oGEuckhImLW3X320VUdfo+8qj1kJ8g0l/Hm6EdmdbU0M16FOZAfHLZpdxV2fnn6zIzPf7zouALtuzjcM2dAljWyr9o9YH3q4RhzJMxNCktTrtzVb19xntdR09r8HnsMFEVV3nKGZ0zfM5X7+Esy9hEn7gu2p1uQA+NdmANt7jn+5dYeO20kYobnwTKjcQSaY/kOkTYvndduf3bpMUFF8c9jh4S5ycDT8v3I6/N+gggCFMLYoiptlFGRWReZ77He8JuW5myq8956xlFTuFGEObCta8iPDTBBhZYP3jMDhVH3F2XcMy/aA9xzPfjiNr929tS7en1kiBh9JMxNAprJKPxfNvfYS+ZnvRDTBYFV6l1xHJUdQWbj1JNdOn916bG783hzrhpNmIHwxo2ZQd//zOL63MsBzguO0zWFOIdycfjUVnv/yg5bsqN/zMMbmw0JcxPAegxTt/baaYva7XFTCpUuzA6LqpylxnF8B7EiHvYE52n/dH233dEx6GerjUcaUZgD7BizcueAffTKTt+iCc8O0Y263ygLZYTn/bQZbXbO1V12fduA1t8YJSTMDQwe1EInLO+7osPvIn2Qq2jVThDBSz56etv9K7/VuoPIWNPIwhxg5b9Z23rtTctydvCkNv8MefaVvpAxvkO3CC2k512Wse/c0OVfyKK+SJgbFFZ++/yaTj9BBGFl1J7PqMpXzjh+X1cpmZTADiKIVFomiNRKMwgz8PpkV/Lzb++xV1/OAv2Fwdo44oyFCSqHubLw+oXtfgW7XT3q3qgXEuYGg7jhH9zIBJF2X6GoTHg9pRVtT4ZXRQjVoya12juWd9hFW3ptS2djtWGbRZgD9DgxQeW89d1+aVCiN/abEF+gGfSlTB01PeOnik90ZYOuE5EsEuYG4e6uQfvzLT12xtKcb3YirHFG5bEgyAj5a5xX9NtNeduY0gkitdJswhzodQq9aEe/feXaLr+CHSKLQEflQzkjfxB2vssgIzuozNveZwPqf04MCfM4Z1fPkE3b2mcfubLDjpg6IqxOVKIqVDljKyjimBHyF83N2rdv6LY1LeMjHrlaPlWhMC/a0VjCHOjsH7bpW3vtrFUd9uQZ7kXunj/dFVH5Uc7IJ8Ys+O4LXLlhggo7mIvakTCPU3bmh/1uH1+7rstVLOf5XBBfkDEq12MnF1Ye+8w1XT40qhn49NWVCXOj5we7jv9jc4+9bXnOLw8alR97M/KLLg4GCV+1oN1PeGFT3rFa0rURkDCXoce14K/Y2e+8ij7vkfKZBmP69JS7+ux/ruv2S3EymBMn9K3Y+A7dF4RUsWffxXf2+k09Z7pzzHAWdf7xbtzbTPfJSm37049ekifF+XLMzMI+evO2F8pBQ9nIM75kW59/5r/ZlLdXjoxLVFOWMGLjw7ZYpy3K2R9uyfvyOiPq/Hsx6hxLzt7TpCvgSZjLQKjR6UsKOz7jPVHY0mQIB1ETfPJ7VEWJY8SrsngRn6XnakSLyoMoi/puIxn3WPzsS+8/rpEmZTKUy2os1Lmnuhcjwt6MSJjLgDCf5rwq+t1opuGVpskQZQpxVOWoxqhIDPpFnasRjfuNyodiI3/J56jvN5p556OCPKnUailPoc4dPT3jve1mRMJcBoT5jc5jDpUzqvDJZLLkLdQ5JkXJYxYPQsIsk42NSZglzGWRMMtkY2MSZglzWSTMMtnYmIRZwlwWCbNMNjYmYZYwl4Utl9i3jllNzKbznym0MDV2NI3dLqg4wcIKZFHHVmJhF5TiNBmdjzo2KeOa9xYeRmRBLfdVasSc7y0ahGuq973X03iWiZRJV+eOmNrm45mbEQlzGVj8/RNXddpzLs3aSc5YpS2NduKcjD17TvTf6mHPuyzrJ7YcNb3N25OcPWVGmz1zdqZwjPt76Xf2ZKR3ort+9q0jrZAmMazk/fNjplepsQ0TL4AocQx26ORWO87dK4v+RKURx7iPY11arGOyp7A0rok84N7Jm6i00mrMlKQcnOislmsPde61C3O26N7mnOItYS5D7+CwXb17wM8+utQZn2m0aVt7faznaF3j3O19fgGgk1wlxJ7lKuGrLm+3H93UXbgG9/eo75Uz0vvH5l57x4qcr9RUbtIkhhxviVlpUd+r1eimwiuLEkea0ni2x85q8/e10IlDVBpxbIG7j2+vK8zWxCOOOi+Gt/muFR1+Rh55E5VWWu2Sbb024c4evyVVrddOWSLfd3Q357RuCbOIDSuTefFyxiI2COmkLb0jf43P+sygvWVZzq/9zFKjpPmSeVlr76tfpRyL1eUuubvPnuc8Qbo0yp2Xl8X/Xt+lldqaHAmziM2XnTDT5Ea8EBI2da1FmDdkB+3NTpjpW0TsSfPFTpjruUvKWKwuN8d5wZUI8zecMGuH6uZGwixigzDT1EecaXrTBXGxE+ZqteQm5zEHYUacSBNhzjaxx6y99ZobCbOIjYS5OiTMolIkzCI2EubqkDCLSpEwi9hImKtDwiwqRcIsYiNhrg4Js6gUCbOIjYS5OiTMolIkzCI2EubqkDCLSpEwi9hImKtDwiwqRcIsYiNhrg4Js6gUCbOIjYS5OiTMolIkzCI2EubqkDCLSpEwi9hImKtDwiwqRcIsYiNhrg4Js6gUCbOIjYS5OiTMolIkzCI2EubqkDCLSpEwi9hImKtDwiwqRcIsYlMqzOxgMuWu6hfKvzlb2MFEwixhFgUkzCI2CDOiHISZHUwm3NlrfU5M2BIJUanEOBa7vm3Q3rRUwixhFgEJs4jNZ67ptIdNLGzFz+dTZmTsi06s2YSTzWH5rNRmuON/tTHvhRjB8uLkhPmFcyXMonmRMIvYfGBlh+1zwe77xeTRk1rtiKltdvT0+PZkZ0+c1maHTi6kRZqI00lzspaRMIsmRcIsYvO+Kx4Q5iAoB0ws7G5djSFUeN8hPcTp2RJm0cRImEVszrmm0w4c6cqIEphaDHGij1ldGSNfEk2JhFnE5itrH4jKiBKYWiwI80s0+CeaGAmziE1xuFyUwNRiQZgVlTHyJdGUSJhFbCTM1SFhFpUiYRaxkTBXh4RZVIqEWcRGwlwdEmZRKRJmERsJc3VImEWlSJhFbCTM1SFhFpUiYRaxkTBXh4RZVIqEWcRGwlwdEmZRKRLmBBl0OrK1a8jWtQ3a+kzyxrrFG7KDdk/3kA2NaFa7E6/NuUG7seTYpIx0N7UPWq5IJCXM1SFhFpUiYU6Qjv5h+/4N3fbqBe12+pJc4nbqopy9eVmH/f6WHuseKIjWyl399gknMq9dWJ9zku4HVnba6l0D/nwgYa4OCbOoFAlzgrT2DtsbF+dsn3/s9hUscXNCwmJBCHHOvQSABeqPm5Wxfc6v0zldukdMabNZWx8QKAlzdUiYRaVImBOkzQnzO5ez8lp0xavVDnSi/Dgnkp9f0+W9c5h5d6+v7IhZ1HdqNdI9ZmbGLt0mYa4VCbOoFAlzgkiYazcJs4RZSJgTRcJcu0mYJcxCwpwoEubaTcIsYRYS5kSRMNduEmYJs5AwJ4qEuXaTMEuYhYQ5USTMtZuEWcIsJMyJImGu3STMEmYhYU6UZhFmL2r/aimYE7fE7R+77LhLMtolWzQtEuYEaXRhDjLJOdmQ9cvOvpqwke7n13TarzbmLc/iI3VCwizSjIQ5QRpdmOuok6OOhFmkGQlzgkiYxw8SZpFmJMwJImEeP0iYRZqRMCeIhHn8IGEWaUbCnCAS5vGDhFmkGQlzgkiYxw8SZpFmJMwJImEeP0iYRZqRMCeIhHn8IGEWaUbCnCAS5vGDhFmkGQlzgkiYxw8SZpFmJMwJImEeP0iYRZqRMCcIu2SfsWR0d8meOhq7ZE8t7JItYa4NCbOoFAlzgrBM5Wev7rJjZmTsxDnZxO34S7L2grlZ+8GN3dY1UFBJhONM9zI41nm1Ud+p1Uj31Ze325Id/RLmGpEwi0qRMCcIutXlPNmM85xZsrIehvh3O4UMGtnnKnCOv9XrnC7ddvfZaEIhYRZpRsIsmhIJs0gzEuYEoXdhfXbAFrtm//Kdyduy+/rtCve5OTfozwW7e4ZsTcuALXF/i/pOrUa6V+0esJaeB/oxNncM2rKIY5Myzrm2deD+e6wHEmaRZiTMCUKTn4Xenz07ay+Zl7y94LKsvXJBu523Pn9/H/OSHX327hUdTkSiv1Orke4bl+RshRPMwC825u1Fc7Peor5Ti7GlFOd8/8qO+yNP6oGEWaQZCXOCjEZUxoFOMBCVEJUxbRSiMp4wrc1mbXtAoM652onaBe5vWNR3ajV3zhPnaGsp0bxImBNkLOKYZ41GHLMT/kvveUCgtBlrdUiYRaVImBNEwly7SZglzELCnCgS5tpNwixhFhLmRJEw124SZgmzkDAnioS5dpMwS5iFhDlRJMy1m4RZwiwkzIkiYa7dJMwSZiFhThQJc+0mYZYwCwlzokiYazcJs4RZSJgTRcJcu0mYJcxCwpwoEubaTcIsYRYS5kSRMNduEmYJs5AwJ4qEuXaTMEuYhYQ5USTMtZuEWcIsJMyJImGu3STMEmYhYU4UCXPtJmGWMAsJc6JImGs3CbOEWUiYE0XCXLtJmCXMQsKcKBLm2k3CLGEWEuZEkTDXbhJmCbOQMCeKhLl2kzBLmIWEOVHYJfv0xTnb5+912rH6Xy22vxPns52ohF2yp97Va8c64dznn3U6p0v38KltNtOJSuDT7JLtRM1b1HdqNXfOZ83WLtmieZEwJwhe7Hdu6LaXz8/aaYvbE7fXLmy3M5fm7Heb8tY9UBCtK3b228ecyJyyoD7nJN33XtFhq3cN+PPBH27J26mL2u31zqK+U4ud6oxzfsrdU+fIy6ceSJhFmpEwJ8yQ05LBOhvnCPBj1DFJm/t3P6N9j/VAwizSjIRZNCUSZpFmJMwJg6Mnq93qjYRZpBkJc4JM2dprX3eV6pvruuxbsqrtXPLQ2V8391jnA13biSJhFmlGwpwQ67MD9t+Lc76CEcUgq94Om9Jmh0xutRNmZ23xjn4bHE7eh5YwizQjYU6AQWdfXdtlj5nc5ivWARNbZTUY8drEMvPze1Z02L3dyauUhFmkGQlzjeDL3ZAZcJU4a/vUaZJHs9qBThwf7152xFCPRAcmhoRZpBkJc430uAr0jeu6vIA8bKKEOUljZiEC+cErO+zurmSVSsIs0oyEuUY25wbt+b6yuYrlKnNUhZNVZwgV4nzE1Dabs60v0WgNCbNIMxLmGugZNPvzrT1eOMpVNlltxpoc+7u8/R/XKtlN8yQhJMwizUiYa2Cba16/eWmHHewqVD0W9JEVxIq+5hfNzdqy+/pHcr52JMwizUiYa2C5E4ojp8lbrrfhNZPHv78ln1h3hoRZpBkJc5W09w3bzzbk7eBJhRCvqIomS8aCYH18dadtSyh0TsIs0oyEuUo2dwz5ld6oUOrGqL8dMKHVXjw3awvvTaY7Q8Is0oyEuUpW7Oy3I6e2SZRHyejOeJSz327qGXkCtSFhFmlGwlwFA67SnH9bj/fiHq5ujFEzhPQLa7p8NEytSJhFmpEwV8HO/JB95dou7y3LYx49Q7TevqzDx47XioRZpBkJcxXcmBmwNy7JeVH2TeySCiarj+3rBI1+5nlF+w9Wi4RZpBkJcxUs2dFvz7gk44WZyhRVyWTJG4sbHTUjY3+5NT/yJKpHwizSjIS5CqZv7fOVSN7y6Br5jX1nXffIk6geCbNIMxLmKvjLrT1+JTkJ8+jbPv/e7TdqrXWiiYRZpBkJc0zyA8P2w5u6JcxjZPtc0GLvu6LDOmtcB1TCLNKMhDkmLKTzlbVdtp+rXBLm0TeE+S3Lcn6dklqQMIs0I2GOyZ0dg/ax1Z1+xTMt8zn6hnCduqjdbszUFjInYRZpRsIck43tg/Ye15SmclGRoiqYrH6GcL3q8nZbvau2XVolzCLNSJhjQgzzW5fn7GETCxUpqoLJ6mf07b9iftav7FcLEmaRZiTMMbmudcAvXiRhHhtDmF/qhHnRDgmzaFwkzDFZ64T5jCU5v9SnhHn0DWF+8bysLdguYRaNi4Q5Jje0DfioAHnMY2PeY3bCXOvynxJmkWYkzDHZkB20d67Q4N9YGcL88vm1bzMlYRZpRsIck9tyg/bhKzsULjdGhnCdQlTGbkVliMZFwhyTe7uH7PNrNMFkrAzhev2idt+lVAsSZpFmJMwxyfUP27fWddu+rkktYR59Y+Yfg6+317gms4RZpBkJc0wGh81+tynv+zolzKNvCDN9/K09tSmXhFmkGQlzFVy8pdcOmChhHgtDTD98ZafVuIaRhFmkGglzFSzY3mdHTW+TMI+yIVz7OeH6wprOkSdRPRJmkWYkzFWwtmXAXnN5e1PvYMJ9E5XCyylYvfOC/H7MpFb78XotlC8aGwlzFbDkJIu1N/qef9wb2zkRGshgJ6Lh7YLCJ5EpdOlg/Ey/e/ibN/c730OI2E281rxituWxs9rs37f3jjyJ6pEwizQjYa4CFsv/7c09XrQQ56hKNh4tCBJCjKgihI+d3Oq7bY6blbGT5mTthZdl7eXz2+21C9v9hrRvW5aztzs7Y2nOh7G9ckG7nzL9PHfcCXMydoz73hOntdkhLh3SI13SR6g5X9R1lDPE/2SX/pIdtYulhFmkGQlzlSxyFfZQ16xGYKIq2XgyXi6IJkZXwZFOSI+ZmfETOT5zdaf9emPeiUqvXdsyYFs7h/zuIb1Dw9bnxKPY+L+ewWHb1TNkm9oHbOWufj9Q+pP1eTtrdae90qX3dJcu6R/qhJoXG1PbK+0Swht/94oO29JRW6gcSJhFmpEwV8nG7KCd4rw3KtN47M7guhHE4LkilMc67/YDKzvs77f12PVtg9baO2wd/QWxJUywGoieyLsvE/+9u2fY1rUN2D9d+p9wwnjC7Kw7b5u/Hq5lbwKNkH5tbZc5/a8ZCbNIMxLmKmlxonWuq0B4mHh+URUtrRYG7bhuBJkuib9u7rH1mQG7Lz/khbiekD5bdN3ivOoJd/ba+1Z22lHTM95j57qiXnSI9uOntPnrTAIJs0gzEuYqQbsW3NvvxILmeHRFS6MhevTzInIfXdVpM51YsP4HXu1YMOAE6K7OIVvk8vILa7rsqTMyvi8ZIQ7XjGAhZq+Y317z4kUBCbNIMxLmGtjSMeQHux7hKtR46M5AkB/tPPy3L8/ZRc5TvdMJYrXkBoZti/s+e++taRmwVbsG/HZP17cNOE940O52f4sr9qxDctk9ffbx1Z3ek9/PXS95GwTrc064M33JvEDOdufY51+FFwDG8+M85JOEWYw1EuYa6Hbi9MsNeXuc85r3T7HXTJcFFZ5IiV9szPv+8Ti09A454e33Yv6z9Xn7yrVdfkNapkbTDXLqopy9ZmEhUuMNi3P2lqU5e4/72yev7rRvruvyg4dT7+r1Cw91V3DqrZ2D9sdb8v6lt/+EQjTGo919/PP2ZLoxAO/8IJc2LYfQHUUe4UX7kD9nx89uc60iCbMYfSTMNUK/7LNmZwrLgJZUtLE2+pK9qDnhedeKnM3b3meDw5V5nDvyQzZ/e7/9flPezrmm017nRPfYmYV+4PvFCyHDnGd7v4X/w0YEjmt55iUZe7MT7K+t7ba/be6xlTv7rb1/z9ey9L5+e98VHV40T57f7nePSQq6RH67qcf+dGuP+8zbz9wL9rs3dNuX3UvnI6s67PXuZfOGJe22uMYtrIqRMItKkTDXCM11mtiHOPFDtKIq3Gjbwc5ontMVQJ/tV9Z22R0VhJgR7bAhO2AXbemxzzkxPnFOthDT7MQCgUcg43bZIDZ8h7zxk1ScUD/ctS4Q2m+u67ZLtvXu8dro/z7n6i77uxPzDkI8RoFW10LgJTDnnj53bckp5LS7+ux494LiBVYuryTMAiTMNYJUsGj7s52Ilatwo2mIMv2jdAEgAr+5Oe9D1fYEgrzZCeAFd/T4jWbxsLkX0gl9r0m0BkI6xUJ9xNQ2+9CVHd6bvLsrWo1aeoasa5REuZ6scF766YtzdgAvO3fvxQOcIX8kzAIkzAnQ75SNiRj0g+JVFle20TYqO03lZ8/J2H/u6LXevQzAMRlkxtY+3zdMXyuCWToYVg8LAs25OOfhTqA/6ASa3a/bExrgKwcvIoQPI3sq7N2pGcIE527v890zT5uZ8XnABBvyIeSJhFmAhDkhrt7d7zcJpWKVitBoGRWc7gu8dwbbmI1XDsLUmOxx9lWdfiYeE02ChxyVdr0MMUKcOfeBE1v8jMPv3JD3MwxrmUjCVxFCJsi09Q7b9u4hW58Z9P3Wl27rs6lbe22yy6OZ7pPVApmluKl90Hblh3zkB7Mb95R/1cI9dbprmu2ugQX/D3MvJF7m5IGEWQQkzAmB5/W9G7rtsClt3guKEqF6GpWaroH/uiTjoxf2VLG7B8wm3tlrL5qb9V4ycdgIQ1S6o2m8HA6YwPocbXbaopwXzLgCxQuHGYYM7v3fzXk7e3WHjxZ55uyMPX1Wxve5P3lGm1//Azva2VPc7091LwRmPjI4d8bSDvvitV32z9t6/cuLrqC9NDxiQ3oshkVXE9fmX07u/iXMAiTMCUJc75uW5nzlQiijxKdexiAdQnPehu499scys++HN3Z7MaKvE29ttK91T0YkCS8KujeII/7LrT3ufkYufg8wffwS54V+9hrW5Mh6sUN0w5ocPmLEGS8vBjJLzQ9MjvydVgNhdHQ3MABKdMb33Uv3SudVsx5IkuA948Wf7rxnzkvEi4RZSJgTZtKWXh8aRgWPEp56GN4WhigRc1wOJn5wzGFTCkI12t0WcQzvkTxk0SP2WNyRjxZEFkv65ca8vckJ27NmZ310jBdh93LkZRU3kiR0rfA9BJt0+KS75wWXZe29V+Ts365Fsqd8roabs4N+KVlelnjrEubmRsKcMMTmEgaGGIxW9wDicaZrfiO85SAM7mOrOv3xo/nSqMXwnrlWvNevru16UNQGm7EyWeYNi9v9sqLkARYWZYpKr1rjOvDgCfXjep4xK2PvdgJNCN9u56knxV2dg3bW6g7fommEKBRRPRLmOkDo2btWdHihqHc3AYvUHzOzzaZtLb94PINaH3MVnunNeH+E1EWllVbb34ki60Kfe323D02c7u71HctzXrDJ44dNSF6MyxnnQZwRabqDPu68XAYTe+NNpiwLcdvMkByrtUtEOpAw14kVO/vthXMLURr1Eg2EFmFmlbvdZZrW9/UM2Weu6fJiPB5FORjie/T0jJ/+Tb8v+Up3Q9Sxo2UMVHIdRMH8fEPebk9gneiAejKaGwlzncDhob/5ac6rqsd07YIot9qL5mXtKudFRkFz+Ac3ddvjp46f7os9GV1DxGiPtSCX2n4XttrBk1r9RJlr3LOQrytqRcJcRwiz+u3NeT9w5JvbCfY5I1KkR0hY1FRl/ofdQwgN29eJWVQa49FGq8sirh3kXhb7OoF+2bx2m3tPcl0bojmRMNcZFoT/9rpuP/U4KXFGnBhcfP6lWb/MZimIMvG3xCnHjUqQVW+8LOkuOnF2xq/Ex96QQlSDhHkU2Jkfti9d22mHs6h+AgNVRB7QV/y9G7stE9G3zMpwLATP5BGOjUpDVh8L4sxkFSao5JNbEE80ERLmUWJH95B9GXF2njNRBrWIM33LR7p0rtjVH9mfya4kR0wrTPVNa9O/kS2I83GXZGzylt7EJ6WIxkfCPIoQIXHuSLdGJf2+iGqpsaYEf3vTspxtc2JfCuFWrHuMKCMQpWnKRsfI+/0vbPURG/O2J7ems2gOJMyjDFOif31z3q/NQKhVaYVGfOkTpgsCz5goBKI68MDC2siHTG71kytYaKcYHLML7+j1EQIS5bE37zk7cWYnlusixgKEKIeEeQwgWgMBZYovQrs/ExZGJi1grIfMKmsvmZf1O2mw/gb79LFW8ovnZv02Tte0DDxk9TUmtrx7RYcT8EI4XZRYyEbXEGfGFdgVhT0ihagECfMYwRrA7Cf3zuUddtKcjF9A/RNXddp3bui2P92S932TbAS6aveAXdc6YDdmBvyuGot39PntjthvsBTC49h/UFEY6TLEmcFaVpLr1ow+UQES5jGGPuEZW3vt+tZBy9awQDyLy39tbZf3wCXM6TMm+DATNMk9BEXjImFuEK7Y2W+nLGj3S2bSTx0lDrKxM+LX6a769NWdfiF+IfaEhLlBOP/2Hnv8FA36pdkYvGUjg4lbyi84JQRImFMO6/LSn8xyomyRxDrAzCbcWWz5IfvitZ2273/kLafZeDZ0NX1kVedDImqEKEbCnDIYG2IDVWb0rW0dtIvv7LVfbMjb59d0+U0837IsZ6cuardTFmTtFSP2svlZO3pGYd++KEGQpcfoaya2efrd8ppFeSTMKYHQNxa6Z/F1ojNOXtDud0JheyMWgn/clDYfRkflprsCEWYSCUa8s7owxofxnA68iL7mrpEnL8RDkTCPMS09Q3bBHT121qoO7/mylRJrXITtkZhYEpa6ZNYfFZuoi1JTF8b4MWLVmXTCtlhCRCFhHiPYuJUlQd++LOcHhB7uvKggxHjDEtrGNQYBaQn9+daeh0wSEgIkzKMMuzkz64+tp/xedSP7yKkronmMlg8v3g9f2enHFIQoRcI8irDd1JfWdNmTpxfWyWCqblTFlTW2heiMl89vt109mqYtHoqEeRRo7R1yXnKPvXRe1jdjWcsiqsLKmscYQzh+dtZPDGJ6vhDFSJjrzF2dQ/bdGx7YwUSLC8kwxhKeOiNj/7gtb33ahkqUIGGuEzhBG7MDPvSNpqsWrZcVG5E2T5jW5l7aXX7TXCGKkTDXAarZda399s4VOR/KJlGWlRqRN6yrfdbqDr8MrBDFSJjrwPWtA35dZELgEOWoiilrbiMKh5c1u820aVEjUYKEOWE2tQ/ah1chyoUZeVGVUiajJYXX/LqFOR9CKUQxEuYEYX2LL1/b5Zd4JPqCxdGjKqVMhrd8wIRWe9n8dr8olRDFSJgTAp+HvfyIviBGVaIs25MhzAwAvmhuVsIsHoKEOSHm3tNnJ85hD7/oiiiTFRutqgOcML98vhNm19ISohgJcwLcmx+yM5bk/ECfplbLKrHQx/z6he1+ApIQxUiYa6R/aNh+sTFvh09ts/0ubImshDJZqTE4zOc7lndoqynxECTMNUB12pAdsJMuzfpZfTRPSyugTBZltK4eO7nVzrmm0zoUxyxKkDDXADtTf//GbnvslDa/CWpUBZTJoozycqRrZf3opm7La+afKEHCXAM3ZgbsxDkZzeyTxTaWej1mZsYu3tJrA+piFiVImKuEzTR/t6nH7zaiiSSyuEZIJXv/rWvTCkbioUiYq+S2XCESA09ZkRiyOEaZQZhfdXm7ZTXwJyKQMFfJ/Hv67PFT2uwgecuymMYaKodObrXPXdNp6l4WUUiYq6DD1aafbcj7SAxiUaMqn0xWzgirZJ/HCXf0jpQoIR6MhLkKNucG7b0rO3wXhroxZHGNqdhH+rWYu7UZq4hEwlwFy+/rt2fNzhSWbpQwy2Iafcz7XdhqJ8zO2sJ7+0dKlRAPIGGugilbeu3Ai1r8tNqoiieT7c38TtmuDJ25NGfbuxUvJx6MhDkmND3/sKnHb6YpYZbVYiwNy1T+P96at15FzYkiJMwxYbbfN9d1+wkCEmZZLeYXMnL2wrlZuzkrZRYPIGGOydbOIb/BKt6O+pdltRqzRtn77zc3561Ta2aIESTMMbm1fdA+sLLDj6xrGrasVsNrZhD5ZfOztkFesxhBwhyTmzKDfqlGFqGRMMuSsLAE6MQ7e21QTrNwSJhjsrZ1wM5ckvPrY0iYZUkYHjPl6eOrO21rlyI0hIQ5Nte3Dfgt59lIU8IsS8IoR4gzq80tvU9xzULCHJuN2UF79xXqY5YlawgzA8p/39yj7gwhYY7L7R2D9pFVEmZZssYg4H6uTH1xTZftzKs7o9mRMMfkPldpPr+mEC6nOGZZUsZL/oCJLfaGxTlb0zIwUtpEsyJhjknv0LD9ZH23Zv7JEjWEmZUKWXVu9ra+kdImmhUJcxWcf7umZMuSt1Ce/nFbz0hJE82KhLkKLr2nzw5jkXxXkdTPLEvKKEv7XNBiv9yQHylpolmRMFfBtS0DdsqCrBdmec2ypCwI87fWdSkyo8mRMFfBvd2DfgAQYcaiKplMFte8MP+nxb58bZd1a8+ppkbCXAX9Q8P279t7/AI02lpKlpQFYf7s1Z3W1quQuWZGwlwl17QM+BF0ujLUzyxLwoIwf9oJ8+4eCXMzI2GuEuKZP7umy1cmPOeoiiaTxbEgzJ9b02nZPglzMyNhrpLB4WEfb3rE1MICNFEVTSaLY0GYv7q2y3o0+tfUSJhrgL3a3rws5xfMV1+zrFbzwnxBi317XZe5975oYiTMNdDvWptT7+qzo6a3+SnaUZVNJqvUEOZ9ncf8i42KY252JMw1srtn2N6+PGePcJUqLHguk1VjDCQ/ZlKr/et2zfxrdiTMCbBkR78df0nGT9OOqnAy2d4Mb5kXu9bKECBhTgC2nv/G9V12+JRWvxxoVMWTyfZkCDODyG9Y3O5nlormRsKcEHd1Ddpbl+X8XoCaDSiLa3RjsB4zs/52aT3mpkfCnCArdvbbi+Zm/ch6VOWTycoZL3O6wv62udeGFJHR9EiYE+biLb127MyMj0eNqoAyWanRjYEwP92VG8YrhJAwJwwTtv56a489ZYbEWVaZIcrMHj17dafd3TU4UpJEMyNhrgOdA8P2+015O3p6mxbUl+3ViMbAa77wjl4/o1QICXOd6Owftj/d0mPHzMr4ySeKcZZFGfHveMwvmZe1DVl5y6KAhLmO0K0xaUufPXtOYRU6mqt4RlEVVNacRpk4dHKr/ebmvG9pCQES5jpDXVt2X7+9cUm7HTqpEKuqcDoZxsualtQL52ZtU7u8ZfEAEuZRAD/ojs5B++b1Xb7fma4NKiWLH0VVWFlzGOXgiKlt9sdbeqxHuiyKkDCPIi09Qzb3nj57x/KcPdp5z/teWPCa1L3RfFZYjbDF3rIs51cpFKIYCfMYcGtu0P62ucd3byDQhNWp/7m5jGgd1sVYqLhlEYGEeQxZ1zbgY54/uLLDnjGrsAgSIh2iOCTUjWcHO9vXPWc2WPjlxrwfgxCiFAlzCtjSMWiTtvTaudd3+abtSZdm7RA86QucUGNOrBFtBBt7mPOuGUTEWDSJ/6Oy++NGjlfsdPoMUeZZMbZwzjWd1qoNV0UZJMwpY1P7gE25q9d+cGO3feTKDjtjSc5OWdBuz3VifZzzqp82I2NPmt5mT5ja5j+f6n4/1v3/SXMydrI7jrWhT1tU6MOWOKfLDphIl1WLveeKDrspoxXkRHkkzCmGSWD3dg/5HbkvubvP/nlbj59R+HPXBP7RTXk7b0Pefud+//vmvE3b2mtX7e63tt5h25gZtNctbPfdIQrNS4cxhkDrhhft6l3qVxZ7RsLcgAwMDduULb129PSMX4a0Efuquafx0iKgy4lrPW1xuy29T6Is9o6EuUGh//LTV3fZYyYXhCFKMMarIXKhNZDmFgF9yQdMKPz89uUdvuWjsT5RCRLmBmZDdsBeMb/dDxY2Sn8z94G3/LSZhX51+tLTGMHCdYbp1p+4qtNubh+UKIuKkTA3OOwf98zZjbMfIREnL7gsazO29tmVu/rt3Ss6/P8/zHmmaZhJyQviICfItFJYwOq3N+c1gUTERsLc4LCQEgOGT55RWII0SkzGi+07ocWe6u7jT7fmbXDE/dycG7TzNnT7OHC2ZirMqBsbQ5SZzckLgtmd87b3+VUGhYiLhLkJyPQN249u6rbDpxbEmXjaKGFJs+3nPOLDprTZT9x9tJXE/+ac+M2/t893GRzhjsGrxmMdre4Nui04JzHKdB39/pa877oQolokzE3CjvyQfXddtxe38eQ5F7zQFnvitIyP7eY+ynF315BfbP4jV3baU2ghMOHGfbce090RYzx0JvSQ9msuz/nrW7mzX33JomYkzE3Eju4h+6HzOI9iZxUnWmlf3Y6IC4SVbbrOW5+33T2VSd52J9D/ur3HPn11h590wwpuXqSdIfJ406RdqVgjwnSR4BH7dJwYM1HkhDkZP6GH1siVuxRxIZJDwtxk0K1Bn/PxszNepPAmo8RorA3xxCN97mVZ+/0tPb67Ii79Q8O23HmwP3Oi/oGVHfaqy9vtxDlZO3JamxfaILJBtCPN/Z3rOGRyIRLkxXOzdubSnH3x2i6/8e49GtgTdUDC3IT0Oy1hpuArnTf5aCeCCE9a4oG5Dgb56Ac/dVG7XXZPMtv5M1i4PjNYNN29005fnLOT57f7bZ1YrP557iXA1HeiPhDgl83P2msXttu7VnTYl9Z22R/cCwKhb9EaF6LOSJibmBucUH10VaE/Fg91LOOdOS8hb8QkP9V5pp9Y3Wm31HEADa1nZTdE9lZ3nuvbBu2q3QO+S2Jty4BtzA7aXV2DPqoigfeCELGQMDc5mb4h+/cdPfZy5x0eOtk18Z0w0r0xWgLNeTgfnvIhk9rstYtyNvmuPutQmJloYiTMwnqHhu32jkH7xca8Pcc149m5GcFELPlMOqKB9O5P3/9emDTym015u6tz0He1CNHMSJjF/eCl3pQZ9H2pr1nYbo+Z9ED3ghfoEZEOFiW6pVZ8PN/3HrIz1pBgOvXpi9v9qnls3a9dooUoIGEWD6FnEIEesOlb++xr13XbKZe3FxbuJ0rhwsJECrof7hfsUgF2xv+HbhEfZua+x/cR45MXZO1ra7v9AOTG7IBfDU8I8QASZrFHdvUM2+rdA36HlZ9u6Paz64hmIHqBHb8R2v0QXcLOLthdMPc7URUs5P8cd9wb3PFnu+/9+KZuu8ils2pXv+2sMCZZiGZEwixiQdzutS0DfrfvCXf22p9vzduvNub9BJAfr++2nzpjL7s/3ZL3s/Audcex3OW2bq2uJkSlSJiFECJlSJiFECJlSJiFECJlSJiFECJlSJiFECJlSJiFECJlSJiFECJlSJiFECJlSJiFECJlSJiFECJlSJiFECJlSJiFECJlSJiFECJlSJiFECJlSJiFECJlSJiFECJlSJiFECJlSJiFECJlSJiFECJlSJiFECJlSJiFECJlSJiFECJlSJiFECJlSJhFQ9Hb22tdXV3+U6SHgYEB6+7u9jY4ODjyv6IcEmbRMKxfv95+85vf2Be/+EX7+c9/btdff/3IX8RYksvlbOrUqXbuuefa17/+dZs5c6ZlMpmRv4ooJMxi3DM8PGxXXXWVvec977FjjjnGnva0p/nPd7zjHbZw4cKRo8RYsHv3bvvJT35iL3rRi+zpT3+6t5NOOsl+9atfWUtLy8hRohQJsxj39Pf3ey/5iCOOsEMPPdSOPPJIe/zjH+9//sQnPmF9fX0jR4rRZuXKlfbMZz7TPwuezxOe8AR79KMfbS984Qtt3rx5I0eJUiTMTQ7eJv1+27Ztsy1btthdd91ld955p91zzz2+r3Y80NPTY6973et8hT/66KO9PfnJT7ZHPvKRduqpp8ozGyMoW5MmTbLDDz/cC3J4Nk960pP8i/NPf/rTyJGiFAlzkzM0NGQ33nij7/v78Ic/7D3Mj3zkI/atb33LrrnmmpGj0g0DfXRbPPaxj/WVnsp/1FFH2cEHH2xvectbrKOjY+RIMZogzJdeeqk98YlP9N5yEGZE+qlPfar95z//GTlSlCJhbnIQ5vnz59uznvUsO/DAA32T86CDDrIXvOAFNm3atJGj0g2j/BdeeKG/ZrxkPGc+aUL/+c9/HjlKjAW0wt73vvd5D5kXJc+GMvaxj33Mbr755pGjRCkS5iYHYV60aJEfnHnc4x7nPZrDDjvMXvnKV9qsWbNGjko/dLv87W9/857zaaedZm9+85vt97//vUb/xxi85uuuu84+97nP2Rvf+EY7/fTT7ZOf/KQfrBXlkTA3OY0izIFdu3b5sLkdO3aM/I9IAwzQ3nbbbXbLLbdYPp8f+V9RDgmzsGXLltmLX/ziBwnzKaec4vsHhRCjz7gWZppJvIkZ/CEkKnxGzSzCMwyzwtra2uy+++6z1tZW6+zs9KP6zExKGq6Dc+IhcB6a1e3t7f5n/o9r5R6qgfvh3kkjGL+Xpsd9cS7uGwv3yff5DvdOHzPhS8XCfPLJJ/s+5uL0g8WducU5OQ/nZ7IB+VCcB6WE58rfip/tnp5RcX4Uf/L/5SC9kH6w0nNwLfw/kStcOxEeDCbyO9+txyw2rjuUmdKyyv/z92oIz7zYovKIPCguM7XcI/lHeuFcGD/zf9WWfdIoLk/ZbPb+Z1KvujzajGthvvfee+2CCy6wb3zjGz6KgJlF3/ve93zsJA8/QLOWmUdf+9rX7K1vfau9+tWv9k11vMIzzzzTPvOZz9jf//5339RKirvvvtsuvvhif00Mfrz+9a+3V73qVd7++7//20dA/PCHP7TLLrvMN7/jQEVZu3at/frXv7bvfve7Ph3u//zzz/dhb4HNmzfbX/7yF/v4xz/u7/l//ud/7Pbbb/d/27hxo/3gBz/w+cXfjz/+eB//izDzecIJJ/hr/PGPf2w/+tGP/Dm+//3v++PxsBGlvUEFWbdune/rJdrjjDPO8NdBHhDG9sEPftCnvXz5ci86ASrahAkT7Dvf+Y5985vf9PfGtRP3Wvxci+FemfXHcd/+9rd9lMn//d//+YiTKMhDWgSUCY7nPOTlRRdd5Cs88AJhggp/f+c73+lD8igzr3nNa+xtb3ubfelLX/LljxDDJOC8q1atsl/+8pf+mdAfS15RVkO5Oeuss/zkDPpoEc84MBMyPHM+eZ7/+Mc/HlRmbr31Vv+8PvrRj/rzfeELX3jQ3+OCcDLTj7ylLvAseTZz5sy5P58rhfulbvNcqbNvetOb7i9P4ZlwvYw1UO7Gs0CPa2HesGGDL0DErB577LE+BIfogn/+85/+ofAWpeDxwBixZ9YR3uAhhxxyvzFazPeZjURBRCgonNWC4FEIqVSck+siPIiR6HBOwroIIfqv//ov34XA9f3ud7/zscOVgMdAfOjLXvYye8pTnuLTITzs3e9+t88T7vuPf/yjvwYElhAyIi0YGOPvgMhxbcyQ45M8QJSD8Tt/I+1gHEcecq3FQhoFAoNwUWlOPPFEnyYeecgD8oMXAOlyHwgRnjvgITJAdNxxx/nzcV6O5SWBVxQF4o7Yk6/PeMYzfH689rWvLdsdg8AjTMTYkj6zBbkWBql4US5evNiHDfJ8SC9MXgnXTzniO8973vN8PiMW27dvH0k9Hnh5tE54Eb7iFa/wZZjrL84vLIQD8ndaNGeffbbPsz21CorhHNwLz5W85b7f/va3++gInieCTB7yvMhvzseA3R133DGSQnx4lv/7v//rX/zkF+fkHqgjtAIqgWubMmWKr+vcN/dP+aTuFucPzwQNePazn+2F+rOf/ax/sdajVVNvxrUw4w0hRlQYKg4FGaFCmFevXu09aR4iBYy/IZAhzjUYFYDKHASbwsPU3ksuuWTkLJVBRcfLI26WwvGYxzzGF5xwTs5Tes5Q2TEK7oc+9CGbO3fuXisawkwMKKLLeUjnUY96lL3rXe/yHjhTYHnRcD9cA5WM+yf9TZs2+TRmz57t/8b/8/fi6wvXyP+TdjCOJy9Zh6KcMOPV4LHwkuMeuT7Ej5/L5QHXyefLX/5y/108OypheC78jfvDcy3nZSGkfJ+QLPKc877kJS/x3loUPC/KBy+scG9UdvIQbxJBCmWi3DMkf/ge50LwEAJaMnFgMg/XwQuAtEJehPwqtZBn4blzzzwPBHBv0BrgnnjmPBN+phXDy4uXLaLJ+fkbaXM+WgqEvFULrVpmZZJ/3B/pEjKH18x07b1BHadVg5PD9VJXuL6oMss5+P/i54ZjgLNVi9c/FoxrYb7pppvs/e9/v39QodDiDZxzzjn23ve+1z8sHmSo4BRmKjhGBQ6FkO8Gj5Hf+Q5NpMmTJ1fUHMKLw9t47nOfe3/FCoWFwoGYURg5J8Z1UEi5Ls7L+fmd8+LlUYHwosqBMPMS4HzcV7huukuID0Xkw33xN85D2h/4wAfuF2YE6xGPeIS34ImFPOCT36nAIfY0xAY//OEP955r1KQNRJNmNh4X5+PeQz5wDaQX0sHCMyC/+Dv5grdDtwddTLzggiCSHk3wcsK8dOlS383AvXA+8hPvs9wLFmGmWc31kD7G+chTPGeuHdtbuQn3F8QOT7/SLjG6lTgeMSl+BuH3UFbCz1wr5wnlhuP5O9fNvewtEoVWFt8JooZR3qhD3Dd5HO6He+c8eNS1CDPX9JWvfMVfYzgv90C3xt5mZOJc0d3F97i2kN/cQxBf8iXkDceEFwrHhe/hbH3+859PtKuy3jSUMGMUWCYWUKgoXBQCHhBCS4XHO6Hvkr5Imo6EiVGJsVAo+S6/02yiibwncUYk//rXv/rKTAUK10AB4dx47BRuXhac86tf/aq/DjxKvPtQ4PgO5+U7eHp4zuX6U6OEmTR4KWHcN+cPBZf84Tia5kGY6YPDk6HpTquDpi3nD/ePuHPdVCq6JDiW/juOpxuk9MXB73QbkQ+cK9wTlYh75F4RWyoIzVj6rGni8gyCNxTEkOfF+flOuDfSqKcwh/NwbozrIR/wuD71qU89qNzQ8qDccAz5zH1i/M4nx5V7dgEEi7wMaRTfJ88QT5Vz4g3zsuNlyDPAw+VYyknIY37mE0+/XFcPlAoz6fC8+OQayHuEnjwJ90ILopY+9GqFmS5BnCueI9fFtXDt/E46PBdaVaSN903Z5PjnP//5Pv2Qp1ioD1/+8pf92M94oKGEOTwIKlR4qxJtQAFHTIo9CsSWvjMKK6JJt0CxOIcKysOmuRkFaTAQRmHgXKGikA59owz6IdoE2NOfxvEMmnEdCMlPf/pT77FwHq6X8/LJ/SBiiGcUUcKMcf5QCHk5IaxBCGnO0ccYBhq5FkSOKBEGYsincP+kiaiRN3RN0G0RDE+ZeygeUacP78orr/TNcc4fngXPIVQi7pV+Z84XoMuGZzBx4kT/0qApHfIx5Ee4r9EQ5nAu8u85z3mOfyHRNVTcTUC+4emSN3hzCA7Pi+eOIWx0LzA4V65LinxkUJZ7JH/Cebl3nIFf/OIX/tmXfp/vkc/0jfNiKC73iBFOALHnXGMUxcIc7pffMc7N93khIHKUmZ/97Gd+ALuWSTrVCDMDhqH7I4gy38VwWhiopfsFT57ySfnjO4g5M0AZr6D8813S4D75LukwQLynl1daaEhh5mf+j0JOdwRCticQCwbLEFi+F9IJBYn+3KgoBAbrqJwcE7xNCgNNJ97OIQJiT+CREynCuUIh4hNhQcyojKXsSZi5jpe+9KXeywre8d5YsmRJ5AQT+qErgX5EKjPXzX2Ea+FnRs4vv/zykSPLQyXDg6avNuR78X2NlsfMPdB6IDKC6JA9wfOl64jvFD9/XjAIT7nuKJrotODCfWK8DLj+SmLHeSkisgyahucfnBFmPG7dunXkyAcTJcwY5yavEK1yTki1VCPMRFAxqBqeJd8hX3nBMwi4tzEYnA/qThjE5PukQ3pE1lBW0k7DCTOfFFIGv6ZPnz5y5N5B7PBiaEZSeEmLT4zmHDOWiuEtHSIbKNjh3FwLg0Bxmn9UVEaRQ+UiHQoUFRWPvJRywowY8XIhhKtSKOS1zvzjGvG2SoWGSsCLp1IYoKGrgO+HZxDydTSEOQgWLaji1tWewDNmoLBYRMi/N7zhDZGeJs8OJ4C8DvfIc+dlgBOxN9EphnVAaJmFdCh7lF9aQFGRCFHCHOoKf6sHcYWZlyEtTYSYa+MaeZa0xuJcIx403WXF9ZN7J4/wuMu1KtJCwwkzD5OfzzvvvNhNMPqfaL4WN4FIj8K/YMGCkaMKUODo2+KYUOD4HoJGhEAcqKwM+HEe0iDNUIAZVCytrFHCzPGIA824OPGttQpzGPik8IeKRN7RbKSlEXcSAREZiBpphGfK52gIM+WIPlfyo1K4P9Ihz0I6XANCEtViId6aZxSOJ8/Iq09/+tO+5REHwjrpAgrln3JIvzzlMio2vlSY+Q75hEhWEiFRDXGEmbwkTrm4LHK91AlaU3HFlPBFoqT4fng2jLsQnkq3R5ppuME/Cjr9pddee+3IUfFAgGlOF4sMlQgvp7g7g3Pj5QYB4ZNCTt9cNX1yNCEZ2Alp8YkY4X2XxsdGCTPCiNfKdcahVmGmj5jIgvAyC0ZfZTWrh5HHhMyFfkWuJ+RFPYUZ4x7o/oo72MULCK8zvFQ5Ny0XWgulLybiarmuIFI8N7xcRDNuvC3lgP5o7jnkO2lSjngBlFIqzPzMNdM9UC/iCDMveeLBGfilToeySLdPiHGPA/lJK5hnU5we+jBx4sSRo9JJQwlz8D4YRY/rfQTosqDPl/RCYSd9vJDiQaArrrji/sJWXMirXSqTfm5G1UNURShEXEvpushRwowY0AdXSR9lMbUKM9cWYpbJs1D5GDgqHuiLA4OlDMaGtLB6C3O4fl4olcQEF4NoIB7Fz4JnQ2RNqdgiCHi1lBeO5VnzzJl5evXVV3uPkbK1N+M4jmdgm/OFfCLPCDmMGjguFuZwz1xnPftc4wgzDg0th+J6hYdLC6PSyVelEAeNA0X5IT3SZQyIupZmGkqYKeRkOlOVqxUFChIB7TxECm4QXGZZFcdB0o/HQw6FjeOoEFF9wpWAp0h3RrG3gDeF2JR6C1HCjCAxA23FihUjR1VGrcJMpcYDKRVmvLC43RgBWg+IPXmKkV69hZnrRjAZzIs7RR7PmO4XzhnOTVQHL8nS5jf9wkRucE6O5ZPzcq3EoSMilRp9+Hjm5BFpYZRVnJOoTQ6ihJl0GOOoF3GEmXzHEQnPnfsh3JNj47YmAkQREeFEOqRHupRvQhXTTEMJc2gW/vvf/47Vz1oMYW3EjPIQQ0GisDM5o7hfChGlYIdjeOAIA4NB1YBAMphId0QQW86LYM6YMWPkqALlhJkICLyoONQqzLw0CE3i/kNe8VlN0zNAXz/5jcAEwR8NYUY8eAHHFWY8WAYAKxFmIh+YqMI5OTYY3+Eeuf5KjeMp8+RTSIf851kQmlhKlDDzQlmzZs3IEckTR5g5lvDRUIa4HyYiEepZLTgHLEVQ/DLkmRMDnWYaUpjp89vTzLk9Uakw0yQtFWa6EmoR5gULFtQkzIRKxd0OKq3CTBhiMwkzec618wxqMTxDzl+pMNMfXe14TCXEEWa6kJIWZiCqSsI8ipTrymAALGrKcCVQkEK0BQWXgky6pV0ZTGnm/4uFmRlsVNJqQGwJ70PkQlcG6SMuTHIoJk3CTAx0aE6TDyE/4oZ+FUNMM83PkK98NoowswEp4sk5OZZPujLoluD5kU4txu4tdAdERYRECTPfSYsw79y5078oQr0jf3iJMZOyWnDQiMzgOYf85vz0ZaeZhhv8o5DTRxy3cgUQXwaASI/CgeGJE65DwQkgSBxTLMwUPgZ8qoGJJHhTxF0iyBQi7ouCymyvYtIkzHSd0DdK3odnwCeDf3uboFEOniv3FvIWaxRhZmZauCeO5VnzzGnl0aXAs67FGBSkDEQ5JmkXZlqrhP/RUuJY8ofnw+Slah0tooYonwwikh73zCexzGmmoYQZo+CxdGHphJBKCZMlSCekR0Vj0KY4XI5Rb8QsCBHHIQqE55RWxkqgAEc131lXo3QmV5qEmRcZA2ZUpOI8Yzp4pTMPiyHv8La5jvCCCnnRCMJMdxUzM4NIUXYRZsLo6k3ahRnnhEkhTLbBGSIveZ7EHRPfXg0MQtOSDc+G/KbesK5LmmkoYSbjefiIG8IVVyAJ16HyUyjCm5XPqAkm9IMimqGAh0rGG7+a9ZypmERklIoRi9iUdgmMljCXE7VimGHF9O/iPKPy03LhGuOOppN39OeTRkgv5EUjCDMvKxZuIo/DeckrPDh2K4kD94C44WkWW7mB77QLM3lFnlGuQ15SHwidxOGJCy02nAbSCWUJz7ne95wEDSfMocARBhQndAyBYo4+weh8n3RCIWb1tVLvj8LP1Gf6tIOYcjwizsJFcQSJQcUgRhjnJk36bonUKGU0hJmJFpV4zMBLhUHXYiHl+uknpnldKfQHMj5AGiGtkF6jCDOtLsI5OSY8a+6VZ0n3WKXw3BiTYBCLCT4YIsR0cspAVPlLUpg5P3WAZ8bP5YgjzMDxIfSQY8lPnj1rpFey9kyA66KOEMKKPpAO9075YIEknn+aaThhxviZQsDDrESoCKkhioC+qCCyWChI//rXvx7UjRHAu2PQhuN46HyHa0EgiKSoJI6XrgBWgMPLD2nwiThSeKNEIklh5hoRT1btCsKM98siMoQdVgKDdaWL+fAzeUn3DIvH7y0vyF9edAga3yt9no0izIDDQHdGuE+MfGNsg8k1lcDCUAz0hevG6ybPiQyiXEbld1LCzBwB7o3nQcQEdaeclx5XmCnbtMCK4/nJJ+4PQSW9vYEo41QU53ElZSJNNLQwI3ZMumBghSZ3FMwQZK0HKjUFlYJLGuFn+kqjprcClZvBHPrEgkCGAs/Sj3hG5XZOYDCDWYK8PPCyuV6+HyoO18NAThRJCjOw3RQFFvEL94A4M4OykjUUEB+EgiYn3wvPgkrBJ54zL7dygkf/IYOrtFbC90Ma4XoaSZiZekzZIH/Ccw/3yzPkpV7Oo0N0KDeUa74f0iB/aL3taVnLJIQZMeXaKXuUe/rHKet/+MMfIrti4gozUGd4SXFcqI/cJ/dHVyFr0UTlK9D6pJ86LEEbvs8nvzPjL2rFxrTRsMJMoaOSY3QJsLg5DwWvjALK9lNUTLopEBTS4DvhIfI9ZrTRTC9XCIDCSBQILwHSCIN3/MwgIsHthN/RROfc9JWxRRLXg5dKYeVc4br5me9NnDixrBeStDDTt04FJY2QjxRiQvdYj5pRcYST+2D1N/KktAWBYNIfHvKBNPiZdDA8cF5CpPPb3/7W5wORGzS9meXHywlBIz8wKjJphHxpJGEGZjfSyuB5c26+xyd5RbmgawIBpHuN5VeZ0MTvTE9GdChjHE8ekwZllr/tyaNMQpjpWuNZEhfMeXnWPBvKYtTkpmqEGShjjHMUxx9zPq6ZVgHPifLDBsQYy7RSTrkfFqLiGRSLMuWC/K5l/8LRpKGEmYdGBaeA0swLAslDotOf5hAiTcGnIPHA+H/Eje8HUaXgUPjwtMt5LsVQyeiOCAWAwoBxbgoWlQ3x59ysEctx/H/wCDgvhZbfqdCI1p7Cg5IWZpq9rMZH3nENXE8Q1XCd/BzykoVzorwOJgiwdkOofFwX6fA71xnygmYq+UC/NNfNM+D+SRsPjDhcPEI8JPKH7zeaMJPnN9xwgx9bIG/Cc+RauAfyD4FhzWUEijEAficf+FsoN3yP50I61Ic9kYQw42AUx2FjPFPuuXQiFFQrzPSR04dOdwTPKNwvn6HMUH6oA9RVFh7jGkIZC3mJmJNHOEJ7y5800VDCzAOhYuMN07TGG0OMebAUCoxjeVDh7RsKFz/zsHm4iAKFuBJRDtDdQRMKweF8pEMhIm0+g7CVnpdrojBxTQTCs2PE3nZYSFqYgZcLXRekF/IrVD4+i+8B76Rcc5DFZuh3xNvmvsKzCfcb0iEfOEf4nYkEVC5mXeItEfFCZSav+H6jCXMAcWapWcptKAdcD0a+8DvpkY/8Hv5G/iGQiBPfr6RvOglhpm6VlmGuizRLJ0JBtcIMlHPS5EXNOaiffHJO0iE9riWUJf6Pv3GPnINnS/cYrbRqVjocSxpOmPH6WDaSkWKaLXiCxDVTMHhQFH4qORWYT34PHgBNJApR3IWAAgyK0AXB25nYyVB5KFDBC8I4L9fC/1MhGYVGJCqdzk2BpYLgUe6///7+HPvss4+PRImailsp9PVSYRC44M0yJRbRxNhR+sADD/TCuyePnnyg24auC1oKpMP9FucBP5P35AGeILGqtBToGqJfm2m03Bfn5Bq4P7pSyr0QeBHzouI4rnW//fbzL0m6AqJAmNllhuNJn01muR66buKuLkc0BV4t5wznprzhQe5NmAHxIk6e/OIeEGLSCeUmWCg3/Ey+Mv5B326lO0DTAuReyVPSZyNerjvOMgK8SLhOro384np4nvxfVDcBS9Yyy45jyePwLBnIq3QNaF46dP9RTyiXpIWRD8XliWuizFDvaGEQlsgAdtwwxDTQkMJMBQ+eFQJNwcObJUKAgaiwihefzKyjMiKMhI2V69eNAwOKeLR4MvQx04eK6BOChuhxXhYcOuuss3w/GV7u3qIWiqGyc630Q1I5uX68CgpvNZM6isFbZ3CFrXlYC5qXDM1kjJ0lqIA0MSvJJyoqgoP3S74TwYIQkA/kP/9HuBdr8BbHflNhGZnneXFOnjH3yUArg19RIBhsdEt+c60MHiG85VZOIw+ptOQb6ZOH3CuDZ3FnLK5fv96XH84Zzo0Y0ecaJ2yS/KK/lJXPuF+EiHyi7PBJOeL/adnQpRA3Xp5WBc+Plx6fjK/wIo6bDo4Lzw2Hh7JMK4MyHBU2hygSPkreksfkNfnDYHCcFSBJm2eJo4XgUn+KyxPLrpI/3BvOFa2DPfW3p52GF+ZiGLAiPA2hpnDxoJkhuLeug1og4J9ZgogdzTI8O87LYuyVeFPl4LtcN/cZDLGMO6GjEkiT8wXbU9xqFHyf+yUsb8GCBX4AifznWeD9l8JLqvScHMf/lXuBhe9wXCXHA/cRjg/Gd+LCOYrTCLanc+8NBI21hMknXsJ8Uo7idrMUwzUVl5dQZuI+T6DFxPVge5suXfossWrOGaC1w0uM8kSoHuWJlw75Ve0yAGljXAszngoeSqXCLIQQ4wEJsxBCpAwJsxBCpAwJsxBCpAwJsxBCpAwJsxBCpAwJsxBCpAwJsxBCpIxxL8zMDGMKK3P3EWimwjLbTMIshBivjGthZuYfwsxceRYxYcEXFi2SMAshxjPjWpiZlskay6y5wCI4rK7GXHl2L0hizQshhBgLxrUwM+eenUlYPpA1KcInolzLOgVCCDGWjGthFkKIRkTCLIQQKUPCLIQQKUPCLIQQKUPCLIQQKUPCLIQQKUPCLIQQKUPCLIQQKUPCLIQQKUPCLIQQKUPCLIQQKUPCLIQQKUPCLIQQKUPCLIQQqcLs/wHvfynCm3Fq0AAAAABJRU5ErkJggg==;" vertex="1" parent="1">
          <mxGeometry x="590" y="340" width="58.55" height="70" as="geometry" />
        </mxCell>
        <mxCell id="LWeS2vQ3Frpwj3SJLR0B-10" value="Node Exporter&lt;div&gt;9100:9100&lt;/div&gt;" style="ellipse;whiteSpace=wrap;html=1;aspect=fixed;fillColor=none;labelPosition=center;verticalLabelPosition=middle;align=center;verticalAlign=middle;" vertex="1" parent="1">
          <mxGeometry x="470" y="340" width="70" height="70" as="geometry" />
        </mxCell>
        <mxCell id="LWeS2vQ3Frpwj3SJLR0B-14" style="edgeStyle=orthogonalEdgeStyle;rounded=0;orthogonalLoop=1;jettySize=auto;html=1;entryX=0.5;entryY=1;entryDx=0;entryDy=0;" edge="1" parent="1" source="LWeS2vQ3Frpwj3SJLR0B-11" target="LWeS2vQ3Frpwj3SJLR0B-3">
          <mxGeometry relative="1" as="geometry" />
        </mxCell>
        <mxCell id="LWeS2vQ3Frpwj3SJLR0B-11" value="Monitring" style="rounded=0;whiteSpace=wrap;html=1;fillColor=none;labelPosition=center;verticalLabelPosition=bottom;align=center;verticalAlign=top;" vertex="1" parent="1">
          <mxGeometry x="250" y="336.27" width="410" height="103.73" as="geometry" />
        </mxCell>
        <mxCell id="LWeS2vQ3Frpwj3SJLR0B-15" style="edgeStyle=orthogonalEdgeStyle;rounded=0;orthogonalLoop=1;jettySize=auto;html=1;" edge="1" parent="1">
          <mxGeometry relative="1" as="geometry">
            <mxPoint x="390" y="300" as="targetPoint" />
            <mxPoint x="187" y="342.27" as="sourcePoint" />
            <Array as="points">
              <mxPoint x="187" y="316" />
              <mxPoint x="390" y="316" />
            </Array>
          </mxGeometry>
        </mxCell>
        <mxCell id="LWeS2vQ3Frpwj3SJLR0B-13" value="Vaultwarden" style="rounded=0;whiteSpace=wrap;html=1;fillColor=none;labelPosition=center;verticalLabelPosition=bottom;align=center;verticalAlign=top;" vertex="1" parent="1">
          <mxGeometry x="147" y="336.27" width="80" height="103.73" as="geometry" />
        </mxCell>
        <mxCell id="LWeS2vQ3Frpwj3SJLR0B-22" style="edgeStyle=orthogonalEdgeStyle;rounded=0;orthogonalLoop=1;jettySize=auto;html=1;entryX=0;entryY=0.5;entryDx=0;entryDy=0;" edge="1" parent="1" source="LWeS2vQ3Frpwj3SJLR0B-16" target="LWeS2vQ3Frpwj3SJLR0B-21">
          <mxGeometry relative="1" as="geometry" />
        </mxCell>
        <mxCell id="LWeS2vQ3Frpwj3SJLR0B-24" style="edgeStyle=orthogonalEdgeStyle;rounded=0;orthogonalLoop=1;jettySize=auto;html=1;entryX=1;entryY=0.5;entryDx=0;entryDy=0;" edge="1" parent="1" source="LWeS2vQ3Frpwj3SJLR0B-16" target="LWeS2vQ3Frpwj3SJLR0B-23">
          <mxGeometry relative="1" as="geometry" />
        </mxCell>
        <mxCell id="LWeS2vQ3Frpwj3SJLR0B-16" value="&lt;font style=&quot;font-size: 16px;&quot;&gt;Switch&lt;/font&gt;" style="rounded=1;whiteSpace=wrap;html=1;fillColor=none;" vertex="1" parent="1">
          <mxGeometry x="332" y="50" width="120" height="60" as="geometry" />
        </mxCell>
        <mxCell id="LWeS2vQ3Frpwj3SJLR0B-21" value="PC de test" style="ellipse;whiteSpace=wrap;html=1;fillColor=none;" vertex="1" parent="1">
          <mxGeometry x="500" y="40" width="120" height="80" as="geometry" />
        </mxCell>
        <mxCell id="LWeS2vQ3Frpwj3SJLR0B-23" value="PC de test" style="ellipse;whiteSpace=wrap;html=1;fillColor=none;" vertex="1" parent="1">
          <mxGeometry x="160" y="40" width="120" height="80" as="geometry" />
        </mxCell>
        <mxCell id="LWeS2vQ3Frpwj3SJLR0B-27" style="edgeStyle=orthogonalEdgeStyle;rounded=0;orthogonalLoop=1;jettySize=auto;html=1;entryX=0.487;entryY=1;entryDx=0;entryDy=0;entryPerimeter=0;" edge="1" parent="1" source="LWeS2vQ3Frpwj3SJLR0B-3" target="LWeS2vQ3Frpwj3SJLR0B-1">
          <mxGeometry relative="1" as="geometry" />
        </mxCell>
      </root>
    </mxGraphModel>
  </diagram>
</mxfile>
